<?xml version="1.0" encoding="utf-8"?>
<!-- Generator: Adobe Illustrator 16.0.0, SVG Export Plug-In . SVG Version: 6.00 Build 0)  -->
<!DOCTYPE svg PUBLIC "-//W3C//DTD SVG 1.1//EN" "http://www.w3.org/Graphics/SVG/1.1/DTD/svg11.dtd">
<svg version="1.1" id="Layer_1" xmlns="http://www.w3.org/2000/svg" xmlns:xlink="http://www.w3.org/1999/xlink" x="0px" y="0px"
	 width="800px" height="1280px" viewBox="0 0 800 1280" enable-background="new 0 0 800 1280" xml:space="preserve">
<g>
	<defs>
		<rect id="SVGID_1_" x="0.815" y="36.719" width="798.369" height="1206.562"/>
	</defs>
	<clipPath id="SVGID_2_">
		<use xlink:href="#SVGID_1_"  overflow="visible"/>
	</clipPath>
	<path clip-path="url(#SVGID_2_)" fill="#9B9B9B" d="M189.64,84.084c1.104-14.355,0-19.141-2.578-32.024
		c-2.575-12.882-8.099-38.279-9.938-55.58c-1.839-17.299-4.048-42.696-7.36-48.218c-3.313-5.521,4.417,2.208,32.758-10.308
		c28.344-12.513,134.352-9.568,156.437-16.931s38.649-7.362,37.544-0.736c-1.104,6.625-5.89,23.189-4.786,36.439
		c1.104,13.251,1.106,32.023-2.943,43.804c-4.05,11.777-18.405,36.807-26.502,48.219c-8.099,11.409-75.457,75.087-90.181,82.082
		c-14.722,6.992-27.606,15.46-34.6,11.043s-44.537-30.92-47.115-42.699C187.8,87.397,189.64,84.084,189.64,84.084"/>
	<path clip-path="url(#SVGID_2_)" fill="#9B9B9B" d="M592.687,1036.311c-6.809,13.895-15.461,21.348-22.822,25.027
		c-7.359,3.684-13.254-11.779-5.889-30.918c7.363-19.139,17.666-25.027,23.557-11.777
		C593.423,1031.895,592.687,1036.311,592.687,1036.311"/>
	<path clip-path="url(#SVGID_2_)" fill="#818181" d="M449.138,91.445c9.203,1.473,119.258,23.559,146.865,34.967
		c27.605,11.412,60.734,29.816,82.451,102.329c21.715,72.511,27.605,104.534,28.34,111.895c0.738,7.363,1.475,16.196,4.418,24.293
		c2.945,8.099,13.25,31.657,17.301,48.222c4.049,16.563,17.668,57.785,20.98,71.406c3.313,13.62,13.252,54.844,15.457,62.573
		c2.209,7.73,7.73,23.19,11.043,31.656c3.314,8.465,19.51,55.212,20.982,64.781c1.473,9.57,2.209,36.809-1.84,51.164
		c-4.051,14.355-9.938,42.697-14.355,54.844c-4.416,12.146-4.783,27.977-8.465,34.232s-10.674,7.361-13.252,17.666
		c-2.576,10.309-17.668,51.9-23.557,62.943c-5.891,11.043-23.189,63.311-27.975,78.402c-4.787,15.09-16.932,33.494-23.926,52.268
		c-6.994,18.771-13.988,39.752-15.828,45.639c-1.84,5.893-2.209,6.996-6.625,2.209c-3.922-4.248-69.658-56.67-87.178-69.652
		c-2.213-1.639-3.654-2.65-4.105-2.857c-0.369-1.473-6.994-11.412-13.25-24.662c-6.26-13.252-8.469-18.404-6.996-24.66
		c1.473-6.26-1.102-6.996,5.891-9.57c6.992-2.576,51.533-33.865,53.004-40.859c1.469-6.992-0.369-11.041-10.307-23.188
		c-9.939-12.148-8.467-14.354-16.195-16.932c-7.729-2.576-8.465-14.354,1.84-27.605s16.195-25.029,25.029-39.754
		c8.832-14.723,5.889-20.611,10.307-39.752c4.416-19.141,7.361-22.084,8.834-33.861c1.471-11.781,2.943-13.252-5.891-23.561
		c-8.834-10.305-20.615-38.28-27.975-58.892c-7.361-20.612-17.67-58.892-25.029-76.56c-5.889,57.421-13.25,85.394-11.777,133.981
		c1.471,48.586,8.834,117.785,13.25,141.342c4.418,23.559,20.244,31.471,12.514,49.691s-3.313,20.98-8.834,28.158
		c-5.52,7.178-22.637,24.293-26.5,28.158c-3.867,3.865,20.428,55.213,25.396,72.328c4.967,17.115,1.842,94.043-17.301,130.854
		c-19.141,36.809-92.756,107.48-120.73,113.367c-27.975,5.891-103.061,32.395-141.343-19.139
		c-38.279-51.533-63.308-86.867-76.559-145.76s-41.227-182.57-44.171-226.738c-25.028,79.504-73.614,186.984-76.562,223.791
		c-2.944,36.811-20.611,80.979-27.973,95.703c-7.362,14.723-27.975,26.502-42.699,16.195
		c-14.721-10.307-25.028-22.084-25.028-55.949s1.47-76.561,8.834-100.117c7.361-23.557,2.944-42.697,10.308-58.893
		c7.36-16.197,9.938-15.459,10.304-33.863c0.369-18.402,0.735-23.189-0.368-31.287c-1.104-8.096-3.682-6.254,0-18.035
		c3.682-11.779,14.354-23.557,13.251-29.078c-1.104-5.521-4.049,0.738-4.049-13.986s2.944-19.877,2.209-33.127
		c-0.735-13.252-2.946-22.088-3.313-32.393c-0.369-10.305,1.839-11.775,2.208-18.035c0.369-6.258,0.736-0.736-1.104-9.57
		c-1.839-8.834-3.313-2.574-3.313-18.404c0-15.828,1.104-29.447,3.682-34.969c2.575-5.521,5.521-0.736,2.575-10.674
		c-2.944-9.938-8.465-6.994-6.257-19.877c2.209-12.883,4.417-25.764,4.786-40.857c0.367-15.09-2.577-14.354-4.416-27.605
		c-1.843-13.25-8.466-110.425-8.835-124.411c-0.369-13.985-8.465-58.892-11.042-72.511c-2.578-13.619-8.099-51.53-8.099-75.089
		c0-23.558-1.841-55.583,5.151-76.194c6.995-20.612,13.62-29.077,21.719-33.862c8.097-4.786,37.911-19.509,56.684-30.552
		c18.771-11.041,62.207-37.544,70.672-41.225c2.975-1.292,41.282,24.533,86.868,18.034c84.147-11.997,198.393-58.894,198.393-58.892
		"/>
	<path clip-path="url(#SVGID_2_)" fill="#666666" d="M559.56,638.049c2.209-66.99,6.627-106.742,6.627-111.159
		c0-4.418,5.152-5.156-2.209-29.448c-7.361-24.294-13.252-31.654-22.086-73.616c-8.834-41.961-13.252-73.618-8.098-112.633
		c5.154-39.018,18.406-94.965,25.031-129.565c6.623-34.601,16.197-45.643,24.293-52.268c-19.141,11.041-39.752,77.296-57.42,216.431
		c-6.627,55.216-2.945,67.729,2.207,96.438s13.25,27.973,10.307,44.905c-2.945,16.933-8.832,19.142,0.736,32.393
		c9.568,13.25,4.418-17.668,11.777,20.611C558.087,578.42,559.56,638.049,559.56,638.049"/>
	<path clip-path="url(#SVGID_2_)" fill="#666666" d="M667.593,611.545c-25.396-0.553-44.17-3.313-45.273,1.104
		s1.104,6.626,1.104,6.626c14.908,7.178,107.664,27.053,115.945,32.575"/>
	<path clip-path="url(#SVGID_2_)" fill="#666666" d="M586.983,577.313c12.699,29.815,20.428,62.39,33.127,64.046
		c12.699,1.656,45.275,3.313,51.9,3.313s11.596-5.521,14.354,0.553c2.762,6.074-1.656,9.385-10.488,13.803
		c-8.834,4.418-27.055,8.834-32.576,13.803c-5.521,4.971-13.252,4.418-13.252,4.418s-3.863-4.418-11.594-16.564
		s-8.834-14.355-16.564-32.575C594.161,609.888,586.983,577.313,586.983,577.313"/>
	<path clip-path="url(#SVGID_2_)" fill="#666666" d="M786.3,687.186c-8.834,6.625-16.012,14.908-30.367,6.074
		s-17.115,5.52,2.76,14.354c19.877,8.834,27.607,15.461,30.367,1.656C791.821,695.467,786.3,687.186,786.3,687.186"/>
	<path clip-path="url(#SVGID_2_)" fill="#666666" d="M572.628,839.02c3.313-22.637,6.625-31.471,11.594-40.305
		s-4.416,2.762,3.865,16.563c8.281,13.805,13.252,14.908,11.596,24.295c-1.658,9.385,11.594,22.637,8.281,29.814
		s-8.281,15.459-25.949,25.949c-6.541,3.885-11.266,6.936-14.93,9.123c-6.236,3.729-9.404,4.967-13.229,3.576
		c-6.072-2.211-12.146-0.553-11.043,3.863c1.104,4.418,2.762,2.211,3.865,6.074c1.105,3.865,1.656,3.313,2.209,9.387
		c0.551,6.072,2.76,18.771,5.521,8.834c2.76-9.939,0-15.459,6.072-21.531C566.556,908.588,572.628,839.02,572.628,839.02"/>
	<path clip-path="url(#SVGID_2_)" fill="#666666" d="M567.661,891.287c-3.313,4.418-15.459,12.516-16.934,18.037
		c-1.471,5.521-0.734,5.15,4.787,2.207s15.826-9.568,18.033-15.826C575.757,889.447,567.661,891.287,567.661,891.287"/>
	<path clip-path="url(#SVGID_2_)" fill="#666666" d="M542.63,910.426c-15.459,2.209-155.329,19.879-165.636,19.512
		c-10.308-0.369-12.517-8.834-12.146-11.412c0.369-2.578-1.84,4.785,0,8.834c1.839,4.047,19.507,4.785,27.237,4.416
		c7.729-0.369,99.748-6.623,115.945-9.568C524.228,919.26,542.63,910.426,542.63,910.426"/>
	<path clip-path="url(#SVGID_2_)" fill="#666666" d="M547.048,915.211c-8.1,10.676-20.984,20.615-25.768,53.373
		c-4.783,32.76-2.574,38.65-8.096,54.109s-9.938,29.443-14.355,42.328c-4.418,12.883-9.572,32.389-12.514,42.697
		c-2.945,10.305-8.098,23.555-9.572,16.563c-1.471-6.992,1.844-15.461,1.105-30.549c-0.738-15.092-6.26-2.945-5.891-12.148
		s-1.842-15.828,2.943-29.08c4.787-13.248,27.24-69.564,39.018-90.912C525.698,940.24,547.048,915.211,547.048,915.211"/>
	<path clip-path="url(#SVGID_2_)" fill="#666666" d="M550.36,921.838c-4.049,10.305-8.834,9.938-8.834,33.127
		s-4.049,22.822,2.576,34.232c6.625,11.408,5.156,22.449,9.938,16.93c4.785-5.521-0.365-11.781-3.313-33.127
		c-2.945-21.348-4.416-17.668-2.576-29.447C549.991,931.775,550.36,921.838,550.36,921.838"/>
	<path clip-path="url(#SVGID_2_)" fill="#666666" d="M104.981,703.197c-9.938,0-65.151-1.656-59.63-10.49
		s35.336-8.834,40.306-17.668c4.969-8.834,5.521-14.906-1.104-11.594c-6.626,3.313-28.159,8.281-32.576,8.834
		c-4.417,0.551-7.177,4.416-8.281-12.146c-1.104-16.564,7.178-13.805,11.043-27.608c3.864-13.803-1.656-9.937-8.282-40.305
		c-6.626-30.366-11.594-25.949-14.354-78.4c-2.762-52.452-2.762-69.016,3.312-87.235c6.073-18.221,3.313-29.815-3.864-73.434
		c-7.178-43.616-14.907-77.849-13.251-99.934c1.656-22.084,3.313-35.335,9.938-41.408c-6.074,39.752-11.042,20.98-5.521,62.941
		c5.521,41.962,19.324,89.996,23.741,104.903s7.178,35.888,9.387,50.243c2.208,14.355,5.521,33.68,9.938,45.826
		c4.417,12.147,18.772,75.089,25.397,87.787c6.626,12.7,12.146,27.606,12.146,35.336s-3.864,45.826,0.553,59.078
		C108.294,671.174,104.981,703.197,104.981,703.197"/>
	<path clip-path="url(#SVGID_2_)" fill="#666666" d="M96.885,697.674c-6.626,7.363-12.884,15.828-23.559,16.934
		c-10.673,1.102-14.721-13.254-13.985,1.838c0.734,15.094-3.313,9.207,6.994,18.406c10.304,9.201,13.251,14.721,17.668,10.305
		c4.417-4.418,18.771-28.34,19.508-38.279c0.735-9.938,3.679-14.357-0.37-19.141C99.094,682.953,96.885,697.674,96.885,697.674"/>
	<path clip-path="url(#SVGID_2_)" fill="#666666" d="M110.503,712.029c-2.868,5.754-2.943,7.361-5.89,17.668
		c-2.944,10.307-9.57,29.082-11.777,33.863c-2.209,4.785-6.258,5.523-5.892,7.73c0.369,2.209,1.105,2.943,2.947,0.367
		c1.84-2.574,1.47-1.102,4.417,0.736c2.944,1.842,5.521,6.627,8.096-9.201C104.982,747.365,110.872,711.291,110.503,712.029"/>
	<path clip-path="url(#SVGID_2_)" fill="#666666" d="M39.097,759.881c7.36-6.627,18.033-9.201,23.925-9.568
		c5.89-0.369,17.667,2.941,10.675-2.578c-6.993-5.521-11.78-12.148-18.405-10.674c-6.626,1.473-13.619,5.52-15.459,11.777
		C37.992,755.098,39.097,759.881,39.097,759.881"/>
	<path clip-path="url(#SVGID_2_)" fill="#666666" d="M81.058,752.52c-7.361,8.098-1.104,5.152-12.146,11.043
		c-11.043,5.889-19.511-0.738-13.62,6.256c5.89,6.994,8.099,11.045,15.092,7.363s11.041-0.738,11.41-9.203
		S81.058,752.52,81.058,752.52"/>
	<path clip-path="url(#SVGID_2_)" fill="#666666" d="M68.542,818.773c-7.361,8.1-17.299,7.73-18.036,15.461
		c-0.735,7.729-2.209,7.359,2.945,11.041c5.153,3.682,7.729,7.361,10.674,4.418S68.542,818.773,68.542,818.773"/>
	<path clip-path="url(#SVGID_2_)" fill="#666666" d="M61.917,856.688c-6.258-2.947-12.147-12.885-16.195-7.363
		c-4.051,5.521-10.307,12.516-12.147,20.244c-1.841,7.73-11.041,16.197-0.368,9.57c10.674-6.625,15.46-6.994,20.612-12.146
		C58.972,861.84,61.917,856.688,61.917,856.688"/>
	<path clip-path="url(#SVGID_2_)" fill="#666666" d="M82.529,845.275c-5.151,17.301-18.402,62.943-19.877,67.729
		c-1.473,4.785-5.151,5.52-4.048,8.465c1.105,2.947-4.417-2.207,5.153-0.736c9.569,1.475,10.674,5.891,18.403,8.1
		s14.354,12.146,11.043-3.313c-3.313-15.461-11.043-36.807-11.043-51.9C82.161,858.527,82.529,845.275,82.529,845.275"/>
	<path clip-path="url(#SVGID_2_)" fill="#666666" d="M468.276,348.735v57.421c0,0-150.177,32.022-160.667,31.471
		c-10.49-0.553,135.823-22.085,150.179-25.95c14.354-3.863,16.01-3.313,14.906-9.386
		C471.589,396.217,468.276,348.735,468.276,348.735"/>
	<path clip-path="url(#SVGID_2_)" fill="#2F2F2F" d="M620.386,1009.072c6.902,3.314,38.926,28.711,38.926,31.471
		c0,2.762,0.275,4.141-3.865,6.627c-4.141,2.484-53.557-2.209-54.385-5.521S620.386,1009.072,620.386,1009.072"/>
	<path clip-path="url(#SVGID_2_)" fill="#E7E7E7" d="M620.386,1009.072c-3.313,5.246-24.844,36.441-27.053,38.648
		c-2.209,2.209,3.035-2.207-1.934-7.73c-4.969-5.52-8.281-10.213-11.594-13.525c-3.314-3.313-5.521-1.381-4.693-8.559
		c0.828-7.176-0.553-41.961-8.834-54.383c0,0,6.902,5.797,14.906,11.594c8.008,5.797,29.539,23.465,33.129,26.779
		C617.903,1005.209,620.386,1009.072,620.386,1009.072"/>
	<path clip-path="url(#SVGID_2_)" fill="#2F2F2F" d="M585.878,1050.205c1.656-3.863,1.656-7.729-1.932-12.699
		c-3.588-4.969-4.969-4.969-6.902-7.729c-1.932-2.762-5.246-4.969-2.484-8.557c0,0-0.275,2.482,2.484,3.865
		c2.762,1.379,5.797,6.348,8.834,9.385c3.037,3.035,6.074,4.141,6.35,8.281c0.277,4.141,3.314,2.484,1.105,4.971
		c-2.209,2.482-4.693,3.311-5.799,3.588C586.431,1051.586,585.878,1050.205,585.878,1050.205"/>
	<path clip-path="url(#SVGID_2_)" fill="#4C4C4C" d="M186.325,588.725c-10.308-2.208-17.668-10.308-31.654-40.489
		c-13.989-30.183-38.282-100.118-40.49-117.049c-2.209-16.933-9.57-78.771-9.57-116.314s5.153-108.951,8.099-115.577
		c2.944-6.625,7.361,33.128,9.57,86.866C124.487,339.902,186.325,588.725,186.325,588.725"/>
	<path clip-path="url(#SVGID_2_)" fill="#4C4C4C" d="M184.118,587.251c-11.41-13.617-8.097,12.516-8.465,22.638
		c-0.725,19.877-6.995,81.162-5.521,100.302c7.063,91.779,2.208,73.793,2.208-28.527
		C172.34,652.217,184.118,587.251,184.118,587.251"/>
	<path clip-path="url(#SVGID_2_)" fill="#E7E7E7" d="M316.261,195.983c-2.578,10.674-53.74,132.141-58.525,143.183
		c-4.785,11.043-86.132,72.511-87.235,62.941c-1.104-9.568-3.313-87.97-2.576-101.956c0.737-13.988,0.551-60.917,3.68-68.833
		c3.129-7.915,18.404-22.453,27.238-34.6c8.834-12.147,29.079-22.82,50.795-27.972c21.718-5.156,21.35-4.051,34.969,1.47
		C298.224,175.737,316.261,195.983,316.261,195.983"/>
	<path clip-path="url(#SVGID_2_)" fill="#B5B5B5" d="M219.821,145c2.025,10.49,4.417,30.736-5.338,42.696
		c-9.753,11.965-37.176,34.418-39.752,35.706c-2.576,1.287,14.906-51.717,23.006-63.311c8.099-11.596,21.349-14.356,21.349-14.356
		L219.821,145z"/>
	<path clip-path="url(#SVGID_2_)" fill="#B5B5B5" d="M239.146,203.527c6.073-4.417,20.06-13.437,24.845-19.692
		c4.787-6.258,2.025-16.748,14.356-9.201c12.329,7.544,35.704,26.5,37.36,24.659c1.656-1.839,3.68-3.864,4.97-10.856
		c1.287-6.993-33.68-31.287-41.779-29.448c-8.098,1.843-29.63,16.197-35.335,24.662
		C237.857,192.116,239.146,203.527,239.146,203.527"/>
	<path clip-path="url(#SVGID_2_)" fill="#666666" d="M260.313,139.295c-9.57,0.735-29.446-0.735-34.968,0
		s-7.729,31.288-8.833,41.226c-1.105,9.938-5.522,14.354-5.155,17.299c0.368,2.944-1.104,3.682-5.705,9.938
		c-4.6,6.258-38.096,57.053-38.096,68.833c0,11.778,5.152,73.246,4.417,86.497c-0.735,13.252-2.946,34.97-2.578,40.491
		c0.369,5.521,25.031,88.706,32.393,100.117s11.411-41.226,19.877-69.568c8.465-28.34,33.127-86.865,36.07-95.698
		c2.946-8.836,2.209-51.534,0-69.938c-2.208-18.404-14.354-53.372-15.09-59.997c-0.735-6.626-4.417-6.257,2.576-13.252
		c6.992-6.991,33.128-26.133,35.337-32.758C282.767,155.859,260.313,139.295,260.313,139.295"/>
	<path clip-path="url(#SVGID_2_)" fill="#E7E7E7" d="M370.552,37.89c-3.313,4.97-35.335,42.514-57.421,56.869
		c-22.085,14.354-58.525,38.647-60.733,40.856c-2.209,2.208,51.899,58.525,66.256,59.629
		c20.428-45.273,51.346-119.811,54.659-129.196C376.625,56.662,370.552,37.89,370.552,37.89"/>
	<path clip-path="url(#SVGID_2_)" fill="#E7E7E7" d="M240.436,139.666c-8.099,1.473-16.195,0.735-25.767,17.667
		c-9.569,16.933-35.337,66.99-43.802,73.25c2.944-30.553,12.147-61.472,15.091-69.937c2.947-8.465,1.474-17.299,0.369-29.814
		c-1.104-12.516-7.729-50.795,2.578-60.734c2.574,25.029,1.839,21.351,11.408,34.231
		C209.886,117.211,240.436,139.666,240.436,139.666"/>
	<path clip-path="url(#SVGID_2_)" fill="#4C4C4C" d="M186.88,588.17c10.306-8.834,55.396-75.271,81.896-125.331
		c26.502-50.058,134.717-200.235,155.332-221.585c20.611-21.35,41.961-54.477,41.961-54.477s0.734-2.944-8.1-6.626
		c-8.834-3.679-27.236-2.208-25.027-14.721c2.209-12.516,30.184-26.505,31.654-31.657c1.473-5.152-39.754-18.403-47.852-31.653"/>
	<path clip-path="url(#SVGID_2_)" fill="#4C4C4C" d="M166.082,458.418c0.051-4.514-4.344,19.465,0.368,26.133
		c3.851,5.448,13.663,95.251,18.035,101.965c7.31,11.222,20.506-74.245,20.613-80.244c0.047-2.588-32.807-87.617-32.761-90.179
		c0.854-46.001,0.353-87.067-0.734-109.32c-1.474-30.181,0-55.21,0.734-72.142c0.738-16.933,16.934-67.729,17.669-79.506
		c0.737-11.78,0.002-43.436-2.944-44.171c-2.944-0.737-8.099,17.668-11.778,39.015c-3.681,21.351-27.238,83.923-24.293,123.677
		c2.944,39.752,10.308,154.594,13.987,170.053C168.66,459.158,166.082,458.418,166.082,458.418"/>
	<path clip-path="url(#SVGID_2_)" fill="#818181" d="M370.365,34.393c4.417,12.516,8.099,21.35-4.417,50.795
		c-12.516,29.446-80.979,189.93-95.701,223.058c-14.723,33.127-69.937,187.721-83.922,280.478
		c61.101-110.424,262.072-385.75,280.477-407.835c0,0-19.141-16.93-36.809-25.028c15.461-12.516,20.611-20.611,33.863-27.236
		c0,0-8.832-30.92-16.195-37.544c-7.359-6.626-39.752-19.877-49.32-30.185C388.768,50.588,370.365,34.393,370.365,34.393"/>
	<path clip-path="url(#SVGID_2_)" fill="#818181" d="M184.486,586.516c-12.516-55.949-32.575-287.841-23.741-333.484
		c8.834-45.64,21.992-131.773,22.73-139.135c0.734-7.359-2.256-14.721-2.256-14.721s-11.433,17.665-14.379,27.973
		c-2.943,10.307-40.879,32.392-40.879,32.392v8.099l-11.043,4.417c0,0-9.569,100.853-7.36,165.637
		c2.208,64.781,13.986,130.301,36.071,178.887C165.715,565.167,184.486,586.516,184.486,586.516"/>
	<path clip-path="url(#SVGID_2_)" fill="#E7E7E7" d="M321.413,382.415c20.428-1.104,117.602-18.221,117.602-18.221
		c3.865-4.969,5.521-15.46,0.553-14.906c-4.969,0.552-101.038,11.042-103.247,11.594
		C334.112,361.434,321.413,382.415,321.413,382.415"/>
	<path clip-path="url(#SVGID_2_)" fill="#131313" d="M204.362,690.498c0-7.928-6.426-14.354-14.354-14.354
		s-14.355,6.426-14.355,14.354s6.427,14.355,14.355,14.355S204.362,698.426,204.362,690.498"/>
	<path clip-path="url(#SVGID_2_)" fill="#131313" d="M161.298,843.438c-4.417-6.074-8.834-13.252-13.251-5.521
		c-4.417,7.729-4.97,14.906-2.761,18.221c2.208,3.311,6.625,10.488,9.938,7.176c3.313-3.313,5.521-5.521,6.074-9.939
		C161.85,848.957,161.298,843.438,161.298,843.438"/>
</g>
</svg>
