<?xml version="1.0" encoding="utf-8"?>
<!-- Generator: Adobe Illustrator 16.0.0, SVG Export Plug-In . SVG Version: 6.00 Build 0)  -->
<!DOCTYPE svg PUBLIC "-//W3C//DTD SVG 1.1//EN" "http://www.w3.org/Graphics/SVG/1.1/DTD/svg11.dtd">
<svg version="1.1" id="Layer_1" xmlns="http://www.w3.org/2000/svg" xmlns:xlink="http://www.w3.org/1999/xlink" x="0px" y="0px"
	 width="800px" height="1280px" viewBox="0 0 800 1280" enable-background="new 0 0 800 1280" xml:space="preserve">
<g>
	<defs>
		<rect id="SVGID_1_" x="55.322" y="3.978" width="689.356" height="1272.045"/>
	</defs>
	<clipPath id="SVGID_2_">
		<use xlink:href="#SVGID_1_"  overflow="visible"/>
	</clipPath>
	<path clip-path="url(#SVGID_2_)" fill="#666666" d="M558.739,1150.981c0,8.933,2.434,16.243,1.621,20.301
		c-0.811,4.06-6.493,18.674-5.683,25.98c0.811,7.309,3.248,12.179,4.872,18.677l1.623,6.496c0,0-2.434,7.306-2.434,11.365
		c0,4.063,9.743,13.803,15.426,12.182c5.683-1.624,12.99,4.06,12.99,4.06s4.875,9.742,10.558,12.179
		c5.682,2.436,23.545,7.306,34.914,8.119c11.367,0.815,39.787,0,47.906-0.811s25.173,0,29.23-4.873
		c4.057-4.872,4.872-17.861,4.872-25.17c0-7.307,1.623-4.872-2.437-13.805c-4.061-8.932-11.368-15.425-13.804-19.484
		c-2.437-4.063-11.368-12.179-13.805-12.992c-2.437-0.813-12.177-12.991-13.801-17.051c-1.626-4.062-8.934-17.051-8.934-17.051
		s25.984,33.289,30.855,32.477l4.873-0.811c0,0-10.556-8.122-12.18-11.368c-1.625-3.247-23.551-28.42-25.173-30.855
		c-1.622-2.437-9.744-13.803-12.18-15.426c-2.436-1.626-42.221-12.184-54.4-8.935
		C581.473,1127.438,558.739,1150.981,558.739,1150.981"/>
	<path clip-path="url(#SVGID_2_)" fill="#666666" d="M318.804,1143.269c0.812,13.803,3.449,19.689,3.449,26.998
		c0,7.307,1.727,13.087,1.727,18.772s-1.573,16.698-4.82,24.007c-3.25,7.309-4.009,11.013-4.009,11.013h3.247l2.435,16.236
		c0,0-22.733,7.309-26.795,8.932c-4.058,1.626-6.493,6.498-9.743,11.37c-3.247,4.87-8.119,6.494-17.861,8.12
		c-9.743,1.623-30.043,7.306-55.215,7.306c-25.17,0-47.904-4.872-47.904-4.872l-0.813-18.675l4.871-2.437
		c0,0-1.623-7.309-0.811-12.179c0.811-4.872,3.247-12.181,6.497-15.428c3.246-3.246,1.622-3.249,4.871-8.932
		c3.247-5.683,18.674-23.545,21.924-27.606c3.246-4.06,12.18-16.24,16.236-18.677c4.062-2.434,5.684-4.466,8.933-7.307
		c3.247-2.84,1.623-10.555,2.437-15.428c0.811-4.87,2.437-13.8,19.487-15.425C263.996,1127.433,318.804,1143.269,318.804,1143.269"
		/>
	<path clip-path="url(#SVGID_2_)" fill="#E7E7E7" d="M213.045,18.902c0.608,10.353,0,41.41-3.654,50.545
		s-14.614,37.147-14.614,46.281c0,9.135-4.264,42.628-6.091,64.552c-1.827,21.923-6.09,62.724-5.48,76.121
		c0.608,13.398,1.827,31.667,1.827,41.41s1.826,31.058,2.436,39.583c0.608,8.526-1.218,29.23-0.609,35.32
		c0.609,6.091-1.826,10.962,0.609,12.18c2.437,1.218,17.052,0.609,16.442,7.917c-0.608,7.307,6.089,6.698,4.872,12.788
		c-1.218,6.09-6.09,10.961-15.224,12.789l-9.136,1.826c0,0,1.219,16.442,1.219,24.359c0,7.916,0.608,48.108,3.044,78.558
		c2.437,30.448,3.653,58.461,6.091,66.378c2.435,7.917,6.697,26.185,6.697,51.764c0,25.576,1.219,66.985,1.828,71.857
		c0.608,4.87-2.437,3.653-3.046,9.134c-0.608,5.481-1.826,52.37-1.826,65.769c0,13.397,0,115.705,0.609,133.366
		c0.608,17.66-1.828,43.846-1.828,48.109c0,4.262-3.044,16.442-0.608,34.103c2.437,17.659,4.263,42.627,5.48,49.325
		c1.219,6.7,6.091,17.051,6.699,27.404s2.437,28.013,3.654,37.756c1.217,9.742,5.479,24.968,9.134,28.621
		c3.654,3.655,6.698,10.354,6.698,10.354s-4.872-17.052,20.705-17.052s43.237,1.218,57.243,6.09
		c14.008,4.872,18.271,6.089,18.271,6.089s21.313-46.28,21.923-54.806c0.608-8.526-2.437-116.922-3.654-140.065
		c-1.219-23.14-6.699-143.108-6.699-158.94c0-15.835,2.437-44.453,2.437-56.026c0-11.57-0.608-31.058,0-39.583
		c0.609-8.525,2.436-9.742,4.872-23.749c2.435-14.006,10.352-12.789,12.788-38.365c2.435-25.577,10.962-112.051,15.832-138.237
		c4.873-26.186,29.232-126.666,31.06-140.672c1.825-14.008,3.652-48.719,6.698-52.98c3.044-4.264,3.044,3.653,7.917,20.704
		c4.871,17.052,14.005,39.583,18.876,52.372c4.873,12.788,12.182,44.455,15.227,58.462c3.043,14.006,4.263,28.621,7.306,38.974
		c3.046,10.353,8.525,21.924,9.137,31.058c0.608,9.135,4.262,45.064,7.915,63.942c3.654,18.879,7.309,35.93,10.961,44.455
		c3.656,8.525,3.046,27.403,4.873,32.275c1.826,4.872,7.309,9.134,7.917,22.532c0.608,13.397,0.608,15.834,3.043,27.402
		c2.438,11.572,7.918,60.897,9.136,66.987c1.218,6.089,3.045,71.249,3.045,77.949c0,6.698,0.608,60.898,4.872,95.609
		c4.262,34.71,6.698,71.249,7.916,77.338c1.219,6.09,4.263,23.752,4.263,23.752c0.608,9.134,0,15.831,0.608,26.793
		c0.609,10.962,4.264,26.794,4.872,32.274c0.61,5.483,1.22,14.009,1.22,20.099c0,6.087,6.698,8.525,10.961,20.704
		s4.263,14.615,12.18,12.79c7.917-1.828,21.313-9.745,31.666-14.617c10.354-4.873,24.359-7.307,32.275-6.698
		c7.917,0.608,26.187,7.307,28.621,9.134c2.437,1.828,16.442-12.179,17.052-29.229c0.609-17.052,4.263-54.198,0.609-73.077
		c-3.655-18.879-10.354-88.911-11.57-112.052c-1.219-23.141-7.917-127.275-9.134-157.113c-1.22-29.841-15.226-133.975-14.009-160.77
		c1.219-26.795,1.828-47.5,2.438-68.814c0.608-21.313-0.609-99.871,0-115.095c0.608-15.225-4.263-40.802-3.654-43.846
		c0.608-3.046-7.309-51.154-6.698-57.244c0.608-6.09-9.744-119.358-9.136-132.146c0.61-12.789-0.608-36.538-3.044-47.5
		c-2.437-10.961-14.616-33.493-17.661-45.064c-3.044-11.57-11.57-30.447-11.57-38.974c0-8.525-4.871-45.673-4.871-45.673
		s-24.359-4.264-29.839-4.264c-5.481,0-34.712,6.091-46.283,7.917c-11.569,1.828-63.941,11.57-76.73,12.18
		c-12.787,0.608-52.37,1.218-70.64-0.609c-18.271-1.826-96.828-15.224-101.091-14.614C254.455,17.685,213.045,18.902,213.045,18.902
		"/>
	<path clip-path="url(#SVGID_2_)" fill="#D4D4D4" d="M186.858,258.838c-0.608,15.225,0.609,36.537-0.608,47.499
		s0.608,87.692,0.608,98.654c0,10.961,2.437,18.878,1.218,31.058c-1.218,12.179-0.608,48.108,0.609,68.204
		c1.219,20.097,5.481,70.641,6.091,79.775c0.608,9.136,1.217,1.219,3.045,15.225c1.826,14.006,7.915,46.282,6.698,65.16
		c-1.218,18.877-1.827,44.454-1.827,48.718c0,4.262-1.827,9.742,6.698-5.481c8.525-15.226,11.571-17.659,14.616-26.185
		c3.044-8.525-2.437-1.828-3.045-15.834c-0.609-14.007,0.608-12.79,0.608-28.621c0-15.834,2.437-11.571-4.263-21.314
		s-10.962-18.269-13.397-29.84c-2.437-11.57,7.309,1.218,14.615,6.089c7.308,4.873,18.269,13.398,21.923,9.137
		c3.654-4.264-9.135-9.745-15.224-20.706c-6.091-10.963-17.051-21.923-17.66-31.666c-0.609-9.744-12.18-34.104-12.18-34.104
		s25.577,37.756,32.274,39.584c6.7,1.826,35.32,14.006,35.32,14.006s-29.229-21.923-31.666-37.147
		c-2.436-15.224-10.352-16.442-10.961-33.493c-0.608-17.051-9.134-10.962-4.871-30.448c4.263-19.488,9.743-15.834,9.134-28.014
		c-0.608-12.179-9.744-56.635-10.354-76.121c-0.608-19.488,4.264-16.442,0.609-34.103c-3.652-17.66-17.66-34.712-20.704-51.153
		C191.122,261.273,186.858,258.838,186.858,258.838"/>
	<path clip-path="url(#SVGID_2_)" fill="#CDCDCD" d="M615.576,141.915c1.217,12.788,6.089,66.986,4.871,77.948
		c-1.219,10.961,1.826,59.069,3.654,66.378c1.825,7.308,6.089,55.417,6.089,65.769c0,10.354-7.917,32.276-17.051,37.148
		c-9.136,4.871-25.577,4.871-34.711,3.044c-9.137-1.826-15.226-6.09-14.617-15.224c0.609-9.135-0.608-9.135,6.7-12.789
		c7.307-3.654,4.263-8.525,0-7.917c-4.263,0.609-5.482,2.437-1.828-10.96c3.654-13.397,0.608-9.745,10.962-33.494
		c10.353-23.751,12.18-42.021,19.487-52.372c7.308-10.353,6.09-20.705,11.57-37.757c5.481-17.051,1.217-16.442,3.654-25.576
		c2.436-9.135,1.219-57.244,1.219-57.244"/>
	<path clip-path="url(#SVGID_2_)" fill="#B5B5B5" d="M401.218,93.4c0,0,0,127.073,2.842,137.22
		c2.841,10.151,3.247,16.241,3.247,16.241s-6.496-18.676-6.089-25.171c0.406-6.495-2.843-63.332-2.437-69.421
		c0.406-6.091-2.437-32.886-2.028-40.6c0.403-7.715,0.811-12.181,0.811-15.022C397.563,93.808,401.218,93.4,401.218,93.4"/>
	<path clip-path="url(#SVGID_2_)" fill="#D4D4D4" d="M405.277,333.335c0.169-0.553,0.332-1.084,0.485-1.598
		c1.307-4.389,2.034-7.524,2.761-12.609c0.814-5.687,0.814-18.27,2.843-13.805c2.03,4.465,2.843,8.525,4.06,15.426
		c1.22,6.904,2.03,8.933,6.496,20.301c4.467,11.365,6.902,24.358,9.338,28.823c2.437,4.465,4.873,0.813-0.406-15.832
		c-5.278-16.645-7.715-23.549-9.742-33.696c-2.03-10.149-3.248-15.021-3.655-21.112c-0.407-6.089,1.625-8.932,1.218-14.208
		c-0.406-5.278-0.811-20.705-0.811-24.766c0-4.062-3.25,23.548-3.25,23.548s-1.215-10.15-4.058-5.686
		c-2.844,4.467-2.032,9.744-2.844,14.212c-0.812,4.465-2.028,25.981-2.028,25.981"/>
	<path clip-path="url(#SVGID_2_)" fill="#D4D4D4" d="M319.615,281.979c0,0,19.486,2.437,27.403,6.089
		c7.917,3.654,23.142-4.871,31.667-2.435c8.525,2.435,19.487,7.916,17.051,9.134s-17.661-1.218-20.704,1.826
		c-3.046,3.046-7.309,2.438,0.608,12.181c7.917,9.742,9.742,14.615,14.007,19.487c4.262,4.871,13.396-4.872,10.351,9.134
		c-3.044,14.007,4.264,14.007-3.044,14.007c-7.307,0-20.705-4.872-23.75-4.872c-3.044,0-3.654-6.09-3.654-6.09
		s-6.089-5.48-10.352-4.263s7.308-4.872,7.308-4.872l-14.616-2.436l9.135-10.354c0,0-9.743-9.742-17.05-15.223
		c-7.308-5.48-13.397-9.135-26.187-13.397c-12.788-4.263-21.922-3.046-21.922-3.046L319.615,281.979z"/>
	<path clip-path="url(#SVGID_2_)" fill="#CDCDCD" d="M233.749,684.51c9.135,5.48,21.315,7.309,27.404,8.525
		c6.091,1.217,21.923,1.825,24.359,3.045c2.435,1.217-23.141,5.48-31.058,5.48s-18.269-0.608-18.269-0.608l16.44-6.092
		L233.749,684.51z"/>
	<path clip-path="url(#SVGID_2_)" fill="#D4D4D4" d="M197.82,743.58c1.826,5.48-0.608,13.396,0,21.921
		c0.608,8.528-1.218,54.198,0,69.424c1.218,15.224,1.826,35.321,1.218,47.5c-0.609,12.179,0.608,64.552,0,71.858
		c-0.609,7.309,1.219,15.226,3.045,2.436c1.826-12.787-1.217-16.442,4.264-10.962c5.479,5.481,11.57,10.962,10.96,2.437
		c-0.608-8.525-12.787-20.096-1.826-17.659c10.962,2.434,14.006,2.434,29.231,10.351c15.224,7.917,38.974,20.099,38.974,20.099
		s-3.045-20.099-18.269-24.36c-15.225-4.264-30.449-9.742-32.885-14.006c-2.438-4.262,4.263-14.007,12.18-9.135
		c7.916,4.873,12.18,9.135,10.961,2.437c-1.218-6.7-6.09-11.57-9.743-33.494c-3.654-21.923-9.744-23.751-15.225-26.185
		c-5.481-2.437-6.698-15.834-9.744-17.052c-3.044-1.219-10.961-14.006-14.006-14.614c-3.046-0.611,17.052,11.567,18.269,2.434
		c1.219-9.134,4.263-9.134,0-18.269c-4.263-9.134-12.179-15.834-12.788-28.013s2.437-10.354-1.218-18.879
		S197.82,743.58,197.82,743.58"/>
	<path clip-path="url(#SVGID_2_)" fill="#CDCDCD" d="M195.993,984.123c-1.217,7.31,6.7,62.725,7.309,66.377
		c0.608,3.656,0.608,0,2.435-10.351c1.828-10.354,3.654-24.359-0.608-37.758S195.993,984.123,195.993,984.123"/>
	<path clip-path="url(#SVGID_2_)" fill="#CDCDCD" d="M206.347,1060.245c1.826,9.134,5.479,27.402,4.871,33.494
		c-0.608,6.089,0.608,21.313,3.045,29.229c2.436,7.917,5.48,21.313,9.135,24.969c3.654,3.652,3.654,4.261,6.698-0.609
		c3.045-4.872,7.917-7.917,10.353-9.744c2.436-1.828,1.219-3.045,0.609-12.179c-0.609-9.135,0.609-10.354,3.654-14.007
		s0.608-3.045,5.48-3.045c4.871,0,9.135-1.827,12.179-1.219c3.046,0.61-11.57-3.653-19.487-4.87c-7.916-1.22-7.916,2.434-10.961-6.7
		s-7.308-18.269-13.396-25.577C212.436,1062.682,206.347,1060.245,206.347,1060.245"/>
	<path clip-path="url(#SVGID_2_)" fill="#CDCDCD" d="M340.319,1091.911c0.609-5.48,4.264-4.872,0.609-12.789
		s-9.135-15.224-13.397-15.224s-15.834,8.525-27.403,6.089c-11.57-2.436-31.666-6.089-31.666-6.089s14.615,14.006,26.794,12.789
		c12.179-1.219,17.66-1.219,22.532-1.219C322.659,1075.469,340.319,1091.911,340.319,1091.911"/>
	<path clip-path="url(#SVGID_2_)" fill="#CDCDCD" d="M320.833,1051.108c-6.09-1.825-19.487-17.051-26.795-22.529
		c-7.308-5.48-20.097-10.964-20.097-10.964l9.135,14.617c0,0-23.749-4.264-30.449-1.828c-6.697,2.437-21.313,9.743-24.966,13.398
		c-3.654,3.653,11.569,4.87,20.703,2.436c9.135-2.436,25.577-4.264,34.712-1.827C292.21,1046.848,320.833,1051.108,320.833,1051.108
		"/>
	<path clip-path="url(#SVGID_2_)" fill="#CDCDCD" d="M579.037,1117.488c-1.826,1.217-24.968,4.872-28.013,0.608
		c-3.045-4.262-4.872-7.917-1.828-13.398c3.046-5.479,6.7-12.179,9.744-18.268c3.046-6.09,2.437-20.705,2.437-20.705
		s-9.744,23.141-12.181,25.577c-2.434,2.437-4.871,4.87-7.307-1.828c-2.436-6.697,0-6.089,0.609-24.968
		c0.608-18.877,1.826-30.447,3.653-39.583c1.827-9.134,6.09-13.396,4.872-24.357s-1.218-9.137-7.917-16.443
		c-6.698-7.309-3.653,6.698-11.57-4.872s-9.742-17.051-9.742-17.051s4.87,39.583,6.697,54.198
		c1.828,14.614-0.609,20.706,1.828,34.102c2.434,13.398,6.697,37.756,7.306,43.239c0.61,5.48,1.22,10.351,1.22,15.223
		c0,4.873-2.437,10.962,2.434,14.615c4.873,3.653,9.136,16.442,11.571,21.924c2.436,5.48-4.263,4.872,2.436,5.48
		c6.7,0.608,10.354,2.437,17.662-3.044c7.306-5.481,9.134-14.007,9.134-14.007l-15.834-4.264c0,0,12.181-3.045,14.006-6.09
		C582.082,1120.532,579.037,1117.488,579.037,1117.488"/>
	<path clip-path="url(#SVGID_2_)" fill="#CDCDCD" d="M607.05,1097.393c10.352-3.045,40.801-8.526,42.628-10.354
		c1.827-1.828-16.442-1.217-22.531-0.608c-6.091,0.608-54.199,11.57-61.506,15.223c-7.309,3.656,28.62-14.004,36.537-15.831
		c7.917-1.828,40.8-6.09,45.673-5.481c4.872,0.608,9.134,2.437,8.525,4.87C655.768,1087.649,607.05,1097.393,607.05,1097.393"/>
	<path clip-path="url(#SVGID_2_)" fill="#CDCDCD" d="M560.158,1046.848c3.654,4.872,4.873,12.179,10.962,12.789
		c6.09,0.608,14.615,1.217,20.704,3.045c6.092,1.825,5.481,6.697,6.092,1.825c0.608-4.87,4.262-12.787-7.309-12.787
		s-16.442,0.608-20.705,0S560.158,1046.848,560.158,1046.848"/>
	<path clip-path="url(#SVGID_2_)" fill="#CDCDCD" d="M610.095,956.11c9.134,1.825,17.052,3.045,23.75,6.09s11.569,7.309,7.308,7.917
		c-4.264,0.608-12.181-0.608-17.66-3.045C618.012,964.636,610.095,956.11,610.095,956.11"/>
	<path clip-path="url(#SVGID_2_)" fill="#D4D4D4" d="M459.678,472.587c2.436,11.57,1.827,23.749,7.31,33.493
		c5.479,9.743,5.479,15.833,4.871,28.622c-0.608,12.788,1.217,16.441,4.263,31.667c3.043,15.224,9.743,46.89,10.96,52.371
		c1.22,5.481,2.437,9.744,3.046,17.05c0.608,7.309-0.609,10.354,3.654,15.834c4.262,5.48,6.09,4.872,6.09,15.834
		s3.653,28.622,4.871,35.928c1.218,7.309,0,6.09,1.218,17.054c1.219,10.959,7.916,46.89,8.526,56.023
		c0.609,9.137,1.218,28.013,1.218,34.104c0,6.09,0,53.587,0.609,62.113c0.608,8.527-1.827,7.917,2.434,14.614
		c4.265,6.7,4.265-2.434,9.745,3.656c5.481,6.089,10.353,18.268,13.398,22.531c3.043,4.262,8.525,4.262,8.525,4.262l-6.7-17.051
		c0,0,13.397,15.226,20.097,19.487c6.698,4.264,10.961,7.917,14.615,9.137l3.654,1.217c0,0,4.263,0,14.007,3.044
		c9.742,3.045,23.75,12.79,23.75,12.79s-17.661-20.707-24.969-26.796c-7.308-6.09-8.525-2.437-9.743-14.007
		c-1.22-11.57-1.22-5.48-2.437-24.357c-1.217-18.881,1.828-16.442-7.917-24.968c-9.742-8.525-6.09,10.959-15.832-17.054
		c-9.743-28.011-9.134-12.787-9.743-28.011c-0.61-15.226-1.219-18.879-6.091-28.013c-4.871-9.137-4.871-2.437-3.653-14.615
		c1.218-12.181,3.045-36.538-3.655-44.455c-6.698-7.917-7.915,2.436-11.569-10.354s-11.571-18.269-4.263-23.141
		c7.307-4.872,4.872-1.828,14.615-1.828c9.742,0,29.23,5.481,33.493,4.265c4.263-1.22-20.705-16.443-24.968-18.271
		c-4.263-1.825,3.045-7.915,12.18-6.09c9.136,1.828,28.012,4.265,31.666,7.309c3.654,3.045,11.571,9.135,11.571,4.873
		c0-4.265-19.487-26.188-23.141-27.404c-3.654-1.22-21.923-5.481-25.576-6.7c-3.655-1.217-13.398-1.826-15.226-9.134
		s-11.57-15.225-9.135-22.532c2.437-7.308,12.789-17.051,10.962-23.142c-1.827-6.089-1.219-8.525-11.57-21.313
		c-10.353-12.787-19.488-18.27-24.968-23.75c-5.481-5.48-7.308-7.916-10.354-11.57c-3.045-3.653-7.308-11.57-9.742-16.441
		C477.339,513.997,459.678,472.587,459.678,472.587"/>
	<path clip-path="url(#SVGID_2_)" fill="#CDCDCD" d="M571.729,699.124c9.136-2.436,18.27-5.48,27.404-3.653
		c9.135,1.826,20.096,9.135,26.186,14.005c6.091,4.874,6.7,7.917,9.134,12.181c2.437,4.262-28.62-18.879-28.62-18.879
		L571.729,699.124z"/>
	<path clip-path="url(#SVGID_2_)" fill="#D4D4D4" d="M188.484,269.189c0,0-3.248-13.804-2.438-29.23
		c0.813-15.426,1.626-27.605,3.248-44.656c1.625-17.052,0-30.855,2.437-40.6c2.435-9.743,0.002-35.727,3.249-44.656
		c3.247-8.934,5.683-21.112,8.929-29.231c3.25-8.121,11.369-18.676,10.558-16.24c-0.813,2.437-9.743,29.23-12.992,48.718
		c-3.247,19.487-4.059,38.163-0.812,57.649c3.246,19.488-0.811-0.813,3.246,19.488c4.061,20.298,4.873,23.545,2.438,44.657
		c-2.438,21.111-1.623,28.42-0.812,41.41c0.812,12.991,4.061,28.419,4.061,38.163c0,9.743-1.626,23.545-2.437,25.98
		C206.347,343.078,188.484,269.189,188.484,269.189"/>
	<path clip-path="url(#SVGID_2_)" fill="#B5B5B5" d="M292.415,80.408c-2.438,5.683-22.734,30.855-27.606,35.321
		c-4.871,4.465-23.548,17.458-27.608,18.676c-4.059,1.218-27.201,7.712-29.23,8.525c-2.029,0.812,30.041-10.962,32.884-13.397
		c2.844-2.436,16.645-14.211,21.923-18.676s8.122-7.715,12.587-12.587C279.828,93.399,292.415,80.408,292.415,80.408"/>
	<path clip-path="url(#SVGID_2_)" fill="#B5B5B5" d="M254.252,89.543c0,2.802-2.272,5.074-5.074,5.074
		c-2.804,0-5.076-2.272-5.076-5.074c0-0.698,0.145-1.361,0.397-1.966c0.769-1.826,2.574-3.107,4.679-3.107
		C251.979,84.47,254.252,86.739,254.252,89.543"/>
	<path clip-path="url(#SVGID_2_)" fill="#B5B5B5" d="M204.315,95.835c5.278-2.843,5.278-4.465,13.397-5.683
		s17.052-2.843,21.112-2.437c4.059,0.404,8.525,0.812,8.525,0.812L204.315,95.835z"/>
	<path clip-path="url(#SVGID_2_)" fill="#B5B5B5" d="M505.557,80.407c4.057,6.497,14.612,21.517,19.891,25.577
		c5.279,4.061,7.307,5.278,12.586,6.9c5.279,1.626,10.148,8.525,20.299,13.398c10.15,4.872,25.173,10.557,31.262,11.367
		c6.091,0.811,7.712,0.811,12.99,0.811c5.279,0-45.877-15.425-49.123-17.861c-3.248-2.436-20.3-12.991-23.954-14.615
		C525.854,104.36,505.557,80.407,505.557,80.407"/>
	<path clip-path="url(#SVGID_2_)" fill="#B5B5B5" d="M477.543,68.229c-0.406,2.436-0.813,10.554-0.813,14.208
		s-0.404,9.34,1.623,11.368c2.03,2.029,7.716,1.218,4.873,3.654c-2.843,2.436-6.9,3.25-8.119,0.406
		c-1.219-2.843-1.627-10.558-0.813-14.21C475.107,80.001,477.543,68.229,477.543,68.229"/>
	<path clip-path="url(#SVGID_2_)" fill="#9B9B9B" d="M174.07,268.581c6.699,10.352,12.788,41.409,13.397,53.589
		c0.608,12.18-0.609,48.718,0.608,54.809c1.219,6.089,4.872,12.788,0,15.224c-4.871,2.437-18.269-3.654-20.703-7.308
		c-2.438-3.653-3.046-3.045-3.046-13.396c0-10.354-1.827-15.834-2.437-21.314c-0.608-5.481,0.609-9.135-1.826-9.744
		c-2.437-0.609-8.526-3.653-9.743-0.609c-1.219,3.045-1.219,3.654-0.61,10.962c0.61,7.308,1.827,15.833,5.481,21.314
		c3.654,5.48,3.654,3.044,7.308,5.48s26.186,3.045,29.839,3.654c3.654,0.608,7.917,1.826,7.917,1.826s6.699,2.437,3.654,6.699
		s-1.218,6.089,1.218,8.525c2.437,2.436,3.654,4.872-0.608,7.917c-4.264,3.044-8.526,4.872-15.834,7.307
		c-7.307,2.437-46.891-2.435-50.544-2.435c-3.654,0-5.482-1.828-10.354-10.354s-20.704-42.019-21.923-47.5
		c-1.218-5.48-3.044-5.48-2.436-16.441c0.609-10.962,4.263-32.885,4.263-40.802s1.218-9.135,4.263-17.66
		c3.044-8.526,6.09-7.307,12.18-10.352c6.09-3.046,14.007-4.872,23.141-5.481c9.135-0.609,12.789-3.653,17.052-0.609
		C168.59,264.927,174.07,268.581,174.07,268.581"/>
	<path clip-path="url(#SVGID_2_)" fill="#9B9B9B" d="M622.578,235.088c-1.826,4.263-4.718,5.176-5.938,13.092
		c-1.219,7.918-4.186,12.638-7.229,21.772c-3.045,9.133-3.619,16.364-4.836,23.063c-1.217,6.698-7.592,6.662-9.419,15.188
		c-1.827,8.526-6.375,17.622-6.375,24.319c0,6.699-7.307,17.051,0,17.051c7.309,0,12.789,1.828,18.269-6.088
		c5.482-7.918,14.008-22.532,16.443-29.231c2.436-6.698,1.218-10.961,5.479-12.18c4.264-1.218,12.789-5.48,12.789,0.609
		s-5.48,17.66-6.697,24.358c-1.219,6.699-0.61,11.571-1.219,14.615c-0.609,3.045-2.438,1.219-7.308,3.045
		c-4.872,1.827-7.917-3.654-14.006-0.608c-6.092,3.045-18.27,4.871-21.924,8.525c-3.653,3.654-6.091,3.045-9.134,6.699
		c-3.045,3.652-7.917,5.48-3.045,8.524c4.87,3.046,4.87,4.263,7.916,4.873c3.044,0.608,3.044,3.652,8.525,4.871
		c5.481,1.218,4.871,3.654,9.744,4.872c4.871,1.218,24.968-4.263,33.493-4.263c8.524,0,9.743,0,16.44-6.091
		c6.7-6.089,12.182-14.614,15.835-23.749c3.654-9.135,12.789-25.577,15.834-31.666c3.044-6.091,1.826-12.181,1.826-25.577
		c0-13.397-1.218-28.014-1.218-35.93s1.218-13.397-1.828-16.441c-3.043-3.046-21.313-12.789-33.492-12.181
		c-12.18,0.609-17.66,0-21.314,3.046C626.537,232.652,622.578,235.088,622.578,235.088"/>
	<path clip-path="url(#SVGID_2_)" fill="#4C4C4C" d="M100.689,282.283c-0.305,4.263-0.608,10.047,3.958,13.397
		c4.567,3.35,3.046,5.176,3.046,5.176s0.304-6.395,3.044-12.789c2.74-6.394,2.437-8.221,4.263-11.874
		c1.828-3.653-7.003-0.305-10.353,0.914C101.299,278.324,100.689,282.283,100.689,282.283"/>
	<path clip-path="url(#SVGID_2_)" fill="#F3F3F3" d="M104.242,296.188c0,0-4.263-27.201,29.028-26.186
		c9.872,0.303,33.289-6.496,37.35,0c4.061,6.498,6.497,10.559,8.119,11.369c1.624,0.811-2.437-13.806-3.247-28.42
		c-0.812-14.615-4.872-31.666-4.062-44.657c0.814-12.993,3.25-15.427,0.814-19.487c-2.437-4.061-4.061-12.993-1.625-17.865
		c2.437-4.871,3.247-15.426,5.683-20.297c2.437-4.873,4.873-6.495,5.686-17.862c0.811-11.369,0-22.738,0.811-30.045
		c0.812-7.308,0-13.802,3.248-20.298c3.249-6.496,2.436-3.248,4.871-12.991c2.437-9.743,2.437-16.24,0.813-23.547
		c-1.624-7.309-8.121-8.933-4.871-13.806c3.247-4.871,4.871-7.304,8.93-13.802c4.061-6.496,4.061,2.437,6.496-11.367
		c2.437-13.804,0.813-29.23,4.873-22.733c4.06,6.493-1.626,26.794,2.435,29.229c4.062,2.437-6.089,4.465,3.452,5.481
		c9.539,1.013,27.403-3.858,45.673-1.828c18.27,2.029,49.123,9.337,69.423,10.963c20.299,1.624,51.153,4.061,64.144,3.246
		c12.992-0.812,40.6,0.811,54.402-0.812c13.804-1.624,25.982-4.871,38.162-5.682c12.179-0.813,23.548-2.438,34.103-4.872
		c10.554-2.437,16.24-6.497,27.605-6.497c11.369,0,19.488,0,25.174-0.812c5.682-0.813,5.682,4.872,8.93-5.685
		c3.249-10.555-4.87-5.684,1.625-19.487c6.496-13.802,4.06-21.923,11.367-27.606c7.308-5.683,9.744,17.865,11.366,25.984
		c1.624,8.119,5.685,13.801,3.25,21.109c-2.437,7.307-6.498,16.239-2.437,24.358c4.058,8.121,12.179,13.804,9.743,21.923
		c-2.436,8.121-5.684,8.121-4.06,14.616c1.624,6.496,1.624,12.992,4.87,20.3c3.247,7.308,4.062,28.417,6.498,35.725
		c2.436,7.308,6.495,27.606,5.683,40.6c-0.812,12.991-1.622,12.993-2.437,23.547c-0.811,10.556-1.625,29.231-1.625,35.725
		c0,6.497,0,10.149,5.688,5.889c5.682-4.263,10.146-1.018,21.313-3.045c11.164-2.029,18.473,2.843,25.778,5.278
		c7.309,2.436,10.556,0.812,16.241,4.871c5.683,4.059,5.683,6.497,5.683,7.308c0,0.812,2.437-13.804,2.437-21.922
		c0-8.122,4.871-27.608,5.682-39.788c0.813-12.18,0.812-16.24,6.497-27.605c5.683-11.369,11.365-31.667,17.051-41.41
		c5.683-9.744,5.683-4.872,9.744-20.298c4.061-15.43,3.248-21.112,3.248-35.729c0-14.614-3.248-12.18-2.437-26.795
		c0.813-14.614,2.437,2.437,0-21.923c-2.437-24.357,0.813-38.163,0-45.47c-0.812-7.309-29.232-54.401-34.104-70.642
		c-4.871-16.239-47.093-68.204-47.093-68.204l-602.476-4.059c0,0-2.435,88.503,0,106.365c2.437,17.864,3.247,51.965,4.872,62.522
		c1.622,10.554,3.247,17.052,3.247,34.914c0,17.864,5.683,46.28,5.683,57.649s-2.436,12.18-3.246,17.862
		c-0.812,5.686-4.872,12.993-4.872,22.736s-3.247,41.408,4.872,51.965c8.119,10.555,10.554,8.93,15.426,21.109
		c4.871,12.181,5.686,32.479,7.308,41.41c1.624,8.932,3.555,25.139,3.25,33.291C93.688,286.243,104.242,296.188,104.242,296.188"/>
	<path clip-path="url(#SVGID_2_)" fill="#CDCDCD" d="M95.92,283.806c1.624-6.498,4.871-10.555,4.871-17.052
		c0-6.496-2.435-17.052-4.871-32.477c-2.437-15.43-3.248-29.231-3.248-29.231s14.616-8.933,20.3-9.743
		c5.682-0.815-20.3,3.246-20.3,3.246s-4.06-8.933-7.306-8.933c-3.25,0-16.241-13.801-16.241-13.801s11.368,14.613,13.805,21.109
		c2.437,6.497,8.93,30.044,8.119,37.353c-0.812,7.306,2.435,39.785,2.435,39.785L95.92,283.806z"/>
	<path clip-path="url(#SVGID_2_)" fill="#CDCDCD" d="M170.622,167.694c2.436-4.871-0.812-8.118-0.812-15.426s-0.813-4.872,0-12.993
		c0.812-8.118-5.687,0-0.813-12.179c4.872-12.18,2.436-14.616,8.122-21.923c5.682-7.309,6.493-11.366,5.682-22.735
		c-0.811-11.367-6.497-11.367-5.682-20.297c0.811-8.933-0.815-12.994,2.435-21.112c3.247-8.119,4.059-6.497,4.872-17.863
		c0.811-11.368-1.625-18.677-1.625-18.677l18.676-6.495c0,0,0.812,10.558-1.624,15.43c-2.437,4.871-10.556,5.682-9.745,14.614
		c0.813,8.931,4.062,17.052,2.437,26.795c-1.624,9.743-4.06,16.238-5.683,25.981c-1.625,9.743-3.249,17.051-4.061,32.48
		c-0.811,15.426-1.625,29.229-4.061,36.538C176.304,157.141,170.622,167.694,170.622,167.694"/>
	<path clip-path="url(#SVGID_2_)" fill="#CDCDCD" d="M72.373,94.618c-2.436,10.555-7.308,7.309-8.118,18.676
		c-0.813,11.366-6.496,5.684,0.811,16.237c7.308,10.558-3.246,3.251,7.308,10.558c10.555,7.308,11.369-1.625,13.805,12.99
		c2.437,14.616,5.683,17.863,6.494,18.677c0.813,0.812,4.062-18.677,7.308-21.923c3.249-3.25,8.932-4.061,10.558-10.558
		c1.621-6.493-12.18-8.931-17.052-8.931c-4.871,0-12.993,1.624-15.429-4.06S72.373,94.618,72.373,94.618"/>
	<path clip-path="url(#SVGID_2_)" fill="#CDCDCD" d="M624.687,189.517c0.578-3.05,1.742-9.738,6.258-15.258
		c4.521-5.522,8.726-11.953,16.916-15.681c8.188-3.724,10.91-5.575,17.002-5.629c6.088-0.054-20.658,5.357-25.813,7.841
		c-5.154,2.48-1.521,0.317-4.002-4.838c-2.48-5.156-5.185-0.868-4.351-10.315c0.83-9.446-1.621-10.947,2.593-16.464
		c4.216-5.521,1.161-6.712,8.732-11.039c7.577-4.331,15.226-0.135,10.864-11.361c-4.362-11.229-14.476-18.752-19.056-20.235
		c-4.582-1.483-9.427,1.605-11.588-1.724c-2.161-3.334-6.198-12.431-5.029-18.226c1.164-5.798,0.525-9.143-0.393-9.742
		c-0.918-0.602-3.958,0.034-5.13,5.22c-1.171,5.189-1.468,6.105,1.345,14.302c2.812,8.197,4.024,7.577,4.696,14.574
		c0.668,6.997-0.195,12.791,1.679,17.95c1.873,5.162,3.054,1.191,3.432,9.409c0.376,8.219,4.104,16.714,3.838,20.977
		c-0.268,4.266-1.463,6.712-1.722,12.196C624.703,156.956,624.687,189.517,624.687,189.517"/>
	<path clip-path="url(#SVGID_2_)" fill="#9B9B9B" d="M591.622,60.109c0,0-2.84-17.052-2.84-23.141c0-6.091-0.813-17.052-2.842-18.27
		c-2.029-1.219-19.486,0.407-28.824,1.218c-9.339,0.811-59.272,10.15-63.332,10.555c-4.061,0.406-3.247,0.002-3.247,5.278
		c0,5.279-0.41,30.042-0.813,34.913c-0.404,4.873-0.404,2.032,0.406,7.309c6.9-2.436,16.239-3.248,26.795-6.9
		c10.554-3.654,24.361-2.843,32.072-5.279c7.713-2.436,6.091-1.218,14.617-2.84c8.525-1.626,11.363-2.437,17.861-1.626
		C587.972,62.139,591.622,60.109,591.622,60.109"/>
	<path clip-path="url(#SVGID_2_)" fill="#9B9B9B" d="M475.107,31.69c1.218,1.626,2.438,4.872,2.03,11.369
		c-0.406,6.493-1.22,25.577-0.813,29.634c0.406,4.061,1.218,3.657-3.248,4.469c-4.465,0.811-12.992,1.218-16.238,2.028
		c-3.248,0.812-2.841,0.813-5.276,1.625c-2.437,0.811-4.872,1.219-12.18,1.622c-7.308,0.407-0.813-2.029-11.776-0.812
		c-10.96,1.219-15.019,2.843-21.922,3.247c-6.901,0.407-25.577,0-30.042-0.811c-4.468-0.812-13.397-4.872-21.519-4.872
		c-8.119,0-31.667-2.437-31.667-2.437l3.251-44.656c0,0,17.862,0,23.14,2.841c5.276,2.842,7.715,1.217,12.991,1.217
		c5.278,0,9.338,4.062,17.051,4.468c7.715,0.404,13.805,0.404,22.734-0.406c8.932-0.812,14.614-1.625,20.705-2.844
		c6.09-1.218,3.25-0.404,8.525-2.028c5.278-1.624,8.122-3.654,11.776-3.247c3.653,0.403,6.899,0.811,10.96,1.219
		c4.062,0.404,8.122,0.404,12.587,0C470.643,32.908,475.107,31.69,475.107,31.69"/>
	<path clip-path="url(#SVGID_2_)" fill="#9B9B9B" d="M314.34,29.255c0,0-2.437,12.587-2.843,19.895
		c-0.404,7.307-2.436,19.891-1.622,23.545c-16.24-0.811-31.262-2.03-43.035-4.871s-55.215-4.87-58.46-4.059
		c-3.248,0.811-2.438-2.032-2.03-5.686c0.404-3.653,0-17.051,1.219-21.516c1.218-4.465-0.408-15.428,0.812-16.241
		c1.217-0.811,17.051-2.436,22.733-0.811c5.685,1.624,24.766,0.407,33.698,2.843c8.93,2.436,27.605,2.029,31.666,3.653
		C300.536,27.631,314.34,29.255,314.34,29.255"/>
	<path clip-path="url(#SVGID_2_)" fill="#666666" d="M413.7,38.694c0,0,0-5.785-6.089-5.785c-6.09,0-34.407-0.305-38.061-0.305
		c-3.654,0-10.048,6.09-10.048,12.179c0,6.091-0.305,13.703-0.305,17.965c0,4.263-0.61,12.788,0,16.138
		c0.609,3.35,0.305,7.308,3.653,9.135c3.35,1.827,5.178,2.741,5.178,2.741s32.274,0.304,35.32,0.304
		c3.043,0,5.479-1.826,5.479-3.958c0-2.131-30.752-1.827-33.494-1.827c-2.739,0-10.047-3.35-10.352-6.699
		c-0.305-3.349-1.522-4.566,0.305-4.566s3.959,0.608,4.263-1.827c0.305-2.436-4.263-3.654-4.263-3.654s-0.609-4.871-0.609-7.916
		s-0.608-5.48,0.305-6.09s2.74,0,4.264-1.522c1.521-1.522,1.521-4.872-0.914-3.959c-2.437,0.915-2.437,5.178-2.437,0.915
		c0-4.264-1.218-7.917,0.913-10.049c2.132-2.131,3.654-3.654,6.091-3.349c2.435,0.304,33.188,0,33.188,0s1.218,1.218,1.827,2.739
		C408.524,40.825,413.7,38.694,413.7,38.694"/>
	<path clip-path="url(#SVGID_2_)" fill="#666666" d="M428.316,36.563c2.741,0.913,5.633,3.654,5.329,8.525
		c-0.305,4.872,0.685,17.356,0.685,21.924c0,4.566-1.182,13.092-0.878,14.919c0.306,1.827-0.892,2.436,3.979,2.436
		s10.666-0.608,12.798-0.608c2.131,0,3.659-0.304,3.051-4.263c-0.61-3.958-0.909-4.566-0.909-14.92V45.088
		c0-6.089,2.74-9.438-0.61-11.57c-3.348-2.131-8.525-1.827-11.568-0.913c-3.046,0.913-8.83,0.913-10.05,1.827
		C428.925,35.345,428.316,36.563,428.316,36.563"/>
	<path clip-path="url(#SVGID_2_)" fill="#666666" d="M429.839,52.396c0,1.513-1.229,2.741-2.74,2.741
		c-1.514,0-2.741-1.229-2.741-2.741s1.228-2.74,2.741-2.74C428.61,49.655,429.839,50.883,429.839,52.396"/>
	<path clip-path="url(#SVGID_2_)" fill="#666666" d="M430.143,71.274c0,1.177-0.954,2.131-2.131,2.131
		c-1.176,0-2.132-0.954-2.132-2.131c0-1.178,0.956-2.133,2.132-2.133C429.188,69.142,430.143,70.097,430.143,71.274"/>
	<path clip-path="url(#SVGID_2_)" fill="#666666" d="M490.737,76.755c6.697,0,38.871-10.048,41.914-14.919
		c3.046-4.873,5.924-17.386,5.585-13.094c-0.406,5.177-1.116,9.033-2.334,12.686c-1.219,3.654-29.13,15.43-34.004,15.43
		C497.027,76.857,490.737,76.755,490.737,76.755"/>
</g>
</svg>
