<?xml version="1.0" encoding="utf-8"?>
<!-- Generator: Adobe Illustrator 16.0.0, SVG Export Plug-In . SVG Version: 6.00 Build 0)  -->
<!DOCTYPE svg PUBLIC "-//W3C//DTD SVG 1.1//EN" "http://www.w3.org/Graphics/SVG/1.1/DTD/svg11.dtd">
<svg version="1.1" id="Layer_1" xmlns="http://www.w3.org/2000/svg" xmlns:xlink="http://www.w3.org/1999/xlink" x="0px" y="0px"
	 width="800px" height="1280px" viewBox="0 0 800 1280" enable-background="new 0 0 800 1280" xml:space="preserve">
<g>
	<defs>
		<rect id="SVGID_1_" x="15.893" y="2.527" width="768.215" height="1274.946"/>
	</defs>
	<clipPath id="SVGID_2_">
		<use xlink:href="#SVGID_1_"  overflow="visible"/>
	</clipPath>
	<path clip-path="url(#SVGID_2_)" fill="#9B9B9B" d="M294.901,40.101c-2.572-19.722-8.573-39.442-12.005-49.734
		c-3.431-10.29-21.438-13.718-14.576-36.014c6.858-22.296,120.051-36.876,145.772-47.165c25.724-10.29,14.581,32.585,13.722,56.594
		c-0.859,24.012,4.285,39.447,1.714,52.309c-2.573,12.863-20.581,36.016-37.729,57.453c-17.151,21.436-40.946,37.407-55.63,28.564
		c-14.687-8.841-34.408-28.564-36.123-44.857C298.33,40.958,294.901,40.101,294.901,40.101"/>
	<path clip-path="url(#SVGID_2_)" fill="#9B9B9B" d="M550.436,703.809c7.717,17.148,13.077,39.872,29.157,44.59
		c16.077,4.715,25.724,9.433,25.724-13.721C605.316,711.525,550.436,703.809,550.436,703.809"/>
	<path clip-path="url(#SVGID_2_)" fill="#9B9B9B" d="M180.853,684.941c20.58,5.146,24.009,7.721,25.725,18.867
		c1.717,11.146-19.723,33.442-37.73,37.729c-18.008,4.287-26.581,8.575-30.87,3.429c-4.287-5.145-29.154-10.289-28.297-32.584
		C110.539,690.087,180.853,684.941,180.853,684.941"/>
	<path clip-path="url(#SVGID_2_)" fill="#E7E7E7" d="M402.52,120.705c-1.716,7.717-30.87,66.457-37.73,74.173
		c-6.859,7.717-44.59,40.732-52.737,34.728c-8.145-6.002-21.865-24.009-25.295-35.585c-3.429-11.576-5.145-33.443,2.143-51.879
		c7.291-18.435,7.289-14.146,34.73-22.293c27.439-8.148,72.03-31.3,76.747-24.868C405.092,101.411,402.52,120.705,402.52,120.705"/>
	<path clip-path="url(#SVGID_2_)" fill="#818181" d="M287.828,204.097c0,0,0.425-31.943,0.856-40.73
		c0.43-8.792,0.43-73.748,0.643-81.678c0.215-7.934,8.791-37.088,6.431-37.73c-2.356-0.645-4.502-2.573-10.291,3.001
		c-5.787,5.572-20.793,61.524-21.435,72.887c-0.645,11.363,0.856,46.091,7.503,60.24
		C278.181,194.237,287.828,204.097,287.828,204.097"/>
	<path clip-path="url(#SVGID_2_)" fill="#818181" d="M324.432,87.156c5.788,2.411,11.255-0.803,11.735,14.953
		c0.484,15.758,1.609,29.583-8.198,33.764c-9.809,4.179-3.537,8.201-13.346,4.985c-9.807-3.216-9.967-1.609-13.344,5.788
		c-3.377,7.396-6.272,10.772-7.396,13.506c-1.126,2.732,0-2.572,1.93-14.632c1.929-12.058,12.06-40.839,13.828-44.055
		c1.77-3.215,14.471-15.273,14.471-15.273L324.432,87.156z"/>
	<path clip-path="url(#SVGID_2_)" fill="#818181" d="M350.318,136.998c10.13-4.662,13.343-8.844,24.279-12.862
		c10.933-4.019,11.255-10.131,17.523-7.718c6.271,2.412,6.271,2.573,8.04,3.377c1.767,0.802,1.445,5.145,2.894-7.398
		c1.445-12.542,3.215-20.577-11.736-25.242c-14.954-4.662-23.477,0.163-30.87,8.201c-7.398,8.037-19.134,14.952-17.688,24.276
		C344.209,128.96,350.318,136.998,350.318,136.998"/>
	<path clip-path="url(#SVGID_2_)" fill="#666666" d="M324.271,94.338c2.786,1.929,8.147,6.432,7.718,15.221
		c-0.429,8.788-1.929,12.646-1.716,13.933c0.216,1.287-10.074,14.149-14.149,23.369c-4.073,9.216-10.291,38.801-11.361,51.877
		c-1.072,13.078-2.572,24.012-2.572,27.01c0,3.002,24.01,46.092,25.725,48.878c9.432-18.65,38.159-77.818,42.873-88.965
		c0,0,1.503-8.361-2.355-17.793c-3.858-9.431-15.864-26.583-16.295-31.514c-0.426-4.929,0.217-6.644,4.932-12.862
		c4.716-6.215,18.651-22.08,20.582-26.369c1.929-4.285-10.075-20.151-16.292-18.864c-6.218,1.287-13.292,5.146-13.292,5.146
		s-7.503-0.856-9.646-0.643c-2.144,0.212-11.791,5.36-13.292,7.503C323.629,92.408,324.271,94.338,324.271,94.338"/>
	<path clip-path="url(#SVGID_2_)" fill="#E7E7E7" d="M348.067,80.833c0,0-23.152,3.43-33.013,20.582
		c-9.862,17.149-19.293,48.876-23.153,61.309c-2.146-34.299-1.289-86.178-0.859-101.184c0.429-15.005-0.856-29.583,1.287-34.298
		c2.146-4.719,23.582,26.15,33.873,34.728C336.492,70.542,348.067,80.833,348.067,80.833"/>
	<path clip-path="url(#SVGID_2_)" fill="#E7E7E7" d="M348.067,80.833c0,0,7.291-4.715,17.151,2.144
		c9.86,6.861,33.014,26.581,37.302,37.73c15.434-29.155,30.013-47.591,33.442-63.456c3.429-15.861,3.854-22.723,2.999-29.153
		c-0.856-6.432-5.57-21.437-7.286-25.295c-13.293,13.29-36.015,30.44-46.736,40.3C374.221,52.962,348.067,80.833,348.067,80.833"/>
	<path clip-path="url(#SVGID_2_)" fill="#4C4C4C" d="M538.432,67.327c10.719,3.43,99.469,30.657,101.827,31.942
		c2.358,1.287-7.07,20.793-8.788,31.297c-1.715,10.507-12.221,49.737-15.436,65.814c-3.216,16.078-18.436,81.248-19.723,94.541
		c-1.285,13.29-1.715,43.729-1.07,58.308c0.642,14.578,4.713,41.16,5.145,45.235c0.429,4.073,0,9.216-1.287,15.005
		c-1.287,5.788-6.86,45.447-9.004,59.381c-2.145,13.936-7.291,36.659-10.721,51.45c-3.43,14.792-7.717,34.728-9.646,49.308
		c-1.929,14.577-5.572,46.947-5.572,54.021c0,7.076-1.286,13.077-5.79,21.223c-4.5,8.148-18.22,18.863-23.151,28.084
		c-4.932,9.219-15.866,9.648-16.296,13.72c-0.424,4.072,33.447,21.866,40.734,26.798c7.288,4.93,34.087,33.227,36.016,39.658
		c1.93,6.43,3.642,10.286-1.715,17.578c-5.359,7.289-10.077,9.219-8.361,22.938c1.715,13.72,9.434,53.382,11.15,80.821
		c1.715,27.438-4.289,74.598-4.289,94.322c0,19.723,0.859,208.373-0.856,218.662c-1.716,10.291-7.721,32.588-16.296,41.16
		c-8.572,8.574-50.591,45.451-73.743,47.164c-23.151,1.713-132.913-6.857-155.208-7.717s-84.894,5.145-88.322-4.289
		c-3.43-9.432-0.856-48.02-0.856-48.02s-8.578,2.574-23.152-6.004c-14.58-8.574-25.727-23.152-36.015-30.012
		c-10.291-6.861-44.593-28.299-51.451-41.162c-6.861-12.859,2.572-79.746,4.286-90.037c1.716-10.289-8.575-112.332-5.145-135.484
		c3.431-23.152,4.288-44.588,6.861-57.452c2.571-12.864,2.571-28.296,3.429-36.872c0.86-8.576,7.718-12.865,1.716-18.867
		c-6.001-6-12.863-10.287-13.719-19.721c-0.86-9.432,1.713-10.289-1.717-12.861c-3.428-2.573-19.724-30.869-19.724-30.869
		s11.15-8.578,30.014-19.727c18.864-11.144,28.298-15.434,31.727-20.578c3.432-5.145-4.286-22.296-1.714-35.158
		c2.572-12.859,0-8.574,1.714-26.583c1.716-18.006,0.002-23.151-1.714-31.726c-1.715-8.574,0.857-11.149-4.288-38.587
		c-5.145-27.44-2.572-31.729-5.145-43.732c-2.572-12.006-3.429-14.578-8.574-30.87c-5.146-16.292-4.289-11.147-6.861-30.013
		c-2.574-18.864-7.718-57.452-14.579-90.896c-6.859-33.442-16.292-77.174-18.864-108.902c-2.573-31.729-6.859-42.875-8.575-66.885
		c-1.716-24.012-3.432-26.584,1.713-32.586c5.145-6.002,14.58-8.574,28.298-16.291c13.721-7.719,22.296-15.436,32.585-20.581
		c10.29-5.145,35.158-14.579,44.59-17.151c9.431-2.573,111.476,222.092,111.476,222.092l191.222-226.38l14.148-35.586"/>
	<path clip-path="url(#SVGID_2_)" fill="#4C4C4C" d="M434.889,10.945c0,0,11.577-1.287,18.007,3.859
		c6.433,5.145,24.438,20.581,32.8,25.082c8.361,4.502,28.297,19.293,36.016,19.937c7.717,0.643,13.505,1.287,18.008,6.432
		c4.502,5.145,13.504,20.579,18.006,36.015c4.502,15.434,19.939,52.735,18.008,61.096c-1.93,8.362-22.51,20.581-37.945,32.8
		c-15.432,12.219-51.447,48.877-63.024,59.812c-11.577,10.933-74.602,60.453-95.183,75.246
		c-20.58,14.791-70.101,44.374-79.747,59.168c-9.648,14.791-19.295,24.438-26.369,45.661c-7.074,21.223-19.293,58.525-20.579,66.885
		c-1.288,8.361,16.72-66.885,21.221-82.32c4.502-15.435,14.793-37.301,19.294-55.952c4.502-18.65,6.432-22.509,6.432-22.509
		s-27.012-12.864-44.376-25.082c-17.366-12.22-111.261-73.96-110.618-78.462c0.643-4.502,8.361-18.007,13.506-27.01
		c5.146-9.004,10.291-14.15,10.291-14.15s-22.511,16.079-25.726,14.792c-3.216-1.286-1.286-3.858,3.215-18.007
		c4.503-14.149,27.655-49.521,36.015-59.811c8.362-10.29,17.365-19.294,27.656-28.94c10.289-9.648,16.078-10.933,23.151-16.078
		c7.074-5.146,30.228-29.585,38.588-36.016c8.361-6.432,14.791-12.219,18.008-13.506c3.216-1.286,1.5,9.004,0,14.149
		c-1.5,5.144-7.074,6.431-10.934,19.936c-3.858,13.506-9.646,18.007-10.29,33.443c-0.643,15.434-3.858,28.94-1.287,39.231
		c2.573,10.288,1.927,21.863,7.074,33.441c5.145,11.577,8.789,12.004,16.292,24.009c7.504,12.006,16.509,33.873,24.868,46.736
		c8.362,12.862,14.793,19.937,14.793,19.937s15.434-30.869,25.082-53.379c9.647-22.509,20.58-34.086,25.725-48.234
		c5.145-14.15,23.795-50.164,32.799-67.527c9.004-17.365,18.866-26.369,22.296-44.377c3.429-18.007,2.785-29.584,1.499-36.014
		C436.176,14.805,434.889,10.945,434.889,10.945"/>
	<path clip-path="url(#SVGID_2_)" fill="#2F2F2F" d="M420.526,362.95c-5.573,0.857-11.575,1.93-13.077,8.362
		c-1.502,6.43-3.432,12.218-0.429,16.72c3.003,4.501,9.217,8.574,12.433,9.003c3.217,0.43,13.289-3.432,16.078-8.147
		c2.789-4.715,4.502-10.075,1.93-15.22s-6.427-9.433-9.43-10.077C425.029,362.95,420.526,362.95,420.526,362.95"/>
	<path clip-path="url(#SVGID_2_)" fill="#2F2F2F" d="M409.807,548.814c-4.932,0-15.221,4.072-15.221,15.435
		c0,11.362,6.859,17.151,15.864,17.151c9.004,0,16.171-6.432,16.078-15.009C426.316,546.455,409.807,548.814,409.807,548.814"/>
	<path clip-path="url(#SVGID_2_)" fill="#2F2F2F" d="M414.953,748.395c-8.575,0-15.865,9.437-15.865,16.725
		c0,7.287,8.146,16.721,16.292,16.721s17.151-7.719,17.151-16.721c-0.429-14.58-10.721-15.438-12.435-15.866
		C418.384,748.828,414.953,748.395,414.953,748.395"/>
	<path clip-path="url(#SVGID_2_)" fill="#2F2F2F" d="M254.386,779.268l-1.287-27.868c0,0-13.719-0.646-13.719,14.146
		S254.386,779.268,254.386,779.268"/>
	<path clip-path="url(#SVGID_2_)" fill="#2F2F2F" d="M275.823,757.398c5.788,0,28.511,0.646,31.083,0.646s0,4.072,0,4.072
		l-31.297-1.93L275.823,757.398z"/>
	<path clip-path="url(#SVGID_2_)" fill="#2F2F2F" d="M280.378,576.253c0-9.166-8.201-16.56-15.915-16.56
		c-7.722,0-16.082,8.199-16.082,16.078c0,7.877,4.343,15.594,15.919,15.594C280.859,591.365,280.378,576.253,280.378,576.253"/>
	<path clip-path="url(#SVGID_2_)" fill="#2F2F2F" d="M278.931,575.127c4.662,0.322,20.258-0.321,20.258-0.321
		s0.805-4.18,0.484-3.374c-0.323,0.802-22.993,0.48-23.473,0.802C275.716,572.556,278.931,575.127,278.931,575.127"/>
	<path clip-path="url(#SVGID_2_)" fill="#2F2F2F" d="M259.531,403.147c0-6.861-0.536-20.15-15.222-20.15
		c-14.685,0-12.004,13.611-12.004,15.648c0,2.038,6.646,13.936,10.396,15.114c3.754,1.178,9.113,2.681,11.685-0.109
		C256.958,410.864,259.531,403.147,259.531,403.147"/>
	<path clip-path="url(#SVGID_2_)" fill="#4C4C4C" d="M539.719,701.662c17.364,9.646,37.943,23.154,45.662,33.443
		c7.716,10.289,26.367,50.808,28.297,56.594c1.929,5.789,10.932-13.505,27.01-28.296c16.08-14.793,36.66-38.587,45.02-53.38
		c8.361-14.791,37.943-61.096,50.164-84.893c12.221-23.796,14.793-43.09,24.439-55.952c9.646-12.863,21.223-25.082,22.51-35.373
		c1.285-10.289-3.217-23.151-9.006-37.3c-5.785-14.149-3.857-6.431-7.072-21.223s-17.365-45.019-19.293-63.026
		c-1.93-18.008-7.719-31.514-10.934-48.234c-3.217-16.721-5.145-34.73-6.432-43.089c-1.287-8.362-10.934-21.866-10.291-28.298
		c0.643-6.432-3.859-34.086-9.646-52.735c-5.787-18.652-5.146-23.153-12.863-40.518c-7.717-17.365-23.795-66.886-31.512-82.321
		c-7.719-15.434-13.505-21.223-18.65-19.937c-5.145,1.287-9.005,5.146-12.863,20.581c-3.858,15.435-39.874,162.068-39.232,186.507
		c0.645,24.438,5.79,78.459,7.076,90.037c1.285,11.576,8.682,72.352,10.612,83.285c1.929,10.933,5.466,20.258,17.042,26.047
		s21.223,7.075,20.58,12.863s-12.864,6.431-18.651,21.223c-5.788,14.792-7.396,18.008-7.717,36.015
		c-0.108,6.065-15.757,5.466-27.332,13.184c-11.579,7.718-10.611,11.899-18.974,27.976c-8.359,16.079-2.572,9.646-8.359,16.079
		c-5.79,6.431-34.729,32.799-36.016,49.52C532.002,697.159,539.719,701.662,539.719,701.662"/>
	<path clip-path="url(#SVGID_2_)" fill="#4C4C4C" d="M96.818,748.396c1.716-12.006,0.86-30.868,17.151-39.443
		c16.292-8.576,56.595-22.296,60.881-24.869c4.289-2.572,5.148-5.146-1.713-19.723s-17.151-28.297-18.867-38.587
		c-1.713-10.29,0.003-14.577,3.432-26.582c3.429-12.006,11.146-23.153,8.574-30.014c-2.572-6.858-13.719-11.146-12.863-17.148
		c0.857-6.005,6.861-0.86,9.434-13.722c2.573-12.863-0.86-20.581-3.432-32.583c-2.573-12.006-10.29-13.722-7.718-24.012
		c2.573-10.291,3.432,3.432,5.145-14.576c1.716-18.007-32.583-310.417-32.583-310.417s-10.291-0.858-15.436,11.147
		c-5.145,12.006-1.716,18.867-4.288,27.441c-2.573,8.574-3.43-2.573-5.145,12.006c-1.716,14.576-7.718,50.591-7.718,64.313
		c0,13.719,0,18.005-1.716,27.438c-1.713,9.434-10.29,6.861-12.003,24.012c-1.716,17.148-5.145,24.866-9.435,37.729
		c-4.288,12.863-9.431,25.726-9.431,38.587s6.004,12.006-0.857,22.296c-6.863,10.29-12.864,17.148-13.721,31.726
		c-0.859,14.58,0.857,16.294-2.572,21.439c-3.432,5.146-16.294,14.575-19.725,25.726c-3.428,11.146,3.431,17.148,3.431,24.866
		s1.715,2.573-1.713,15.435c-3.432,12.863-6.005,16.295-1.718,24.013c4.29,7.716,5.146,2.572,6.002,13.718
		c0.86,11.147,12.006,48.878,18.868,58.312c6.859,9.431,8.573,8.575,16.29,30.87C71.094,690.087,96.818,748.396,96.818,748.396"/>
	<path clip-path="url(#SVGID_2_)" fill="#3D3D3D" d="M531.357,196.166c-16.078,33.443-11.575,31.513-42.445,59.811
		c-30.871,28.297-77.818,58.524-99.042,81.677c-21.223,23.153-36.015,43.732-54.665,72.673
		c-18.651,28.941-44.376,63.671-58.525,97.756c-14.149,34.086-20.58,35.371-23.153,47.59c-2.572,12.219-2.572-3.216-0.643-23.796
		c1.929-20.579,4.501-37.301,8.361-54.021c3.858-16.721,10.289-49.521,26.367-78.462c16.079-28.94,108.044-75.246,131.842-108.045
		C443.25,258.55,531.357,196.166,531.357,196.166"/>
	<path clip-path="url(#SVGID_2_)" fill="#3D3D3D" d="M530.07,211.602c-3.214,18.007-5.787,68.813-8.359,97.112
		c-2.573,28.297-10.934,120.264-12.863,151.134c-1.93,30.871-7.074,108.689-5.787,138.272c1.286,29.584,6.432,90.681,5.787,97.755"
		/>
	<path clip-path="url(#SVGID_2_)" fill="#3D3D3D" d="M191.788,738.963c-1.608-18.006-6.753-52.092-4.824-65.275
		c1.929-13.185,8.361-69.458,7.719-87.787c-0.645-18.33-4.824-77.82-6.432-92.611c-1.608-14.792-9.326-84.249-11.898-103.865
		c-2.573-19.615-8.682-74.923-9.004-95.826c-0.32-20.901-0.32-22.831,0.644-44.054"/>
	<path clip-path="url(#SVGID_2_)" fill="#3D3D3D" d="M244.313,600.907c2.572,23.153,8.574,78.89,9.434,106.331
		c0.857,27.441,0.857,29.156,0.857,60.883s4.287,126.055,6.001,156.066c1.717,30.01,0,95.176,0.86,129.479
		c0.857,34.301-8.578,146.635-7.718,168.928c0.594,15.553,4.78,44.068,5.144,38.588c0.858-12.861,6.002,4.289,1.714-42.875
		c-4.036-44.408,5.144-134.625,5.144-158.637s-1.713-48.021-0.856-77.174c0.856-29.156,1.717-49.734-0.857-83.179
		c-2.571-33.44-5.145-100.327-5.145-126.911s-0.859-34.301-0.859-54.882C258.032,696.945,244.313,600.907,244.313,600.907"/>
	<path clip-path="url(#SVGID_2_)" fill="#3D3D3D" d="M302.405,344.729c-15.436-5.146-156.279-91.325-154.35-100.328
		S302.405,344.729,302.405,344.729"/>
	<path clip-path="url(#SVGID_2_)" fill="#3D3D3D" d="M142.91,212.245c3.858,1.286,19.294-2.572,26.369-6.433
		c7.075-3.858,9.646-9.646,4.501-14.791s-21.223,9.003-23.795,12.219C147.413,206.456,142.91,212.245,142.91,212.245"/>
	<path clip-path="url(#SVGID_2_)" fill="#3D3D3D" d="M150.628,194.237c1.929-14.792-0.644-12.863,10.29-33.443
		c10.933-20.58,25.725-34.085,34.728-43.089c9.004-9.003,25.16-15.681,17.044-9.325C159.31,150.182,150.628,194.237,150.628,194.237
		"/>
	<path clip-path="url(#SVGID_2_)" fill="#3D3D3D" d="M177.639,874.021c4.501-20.58,12.219-27.655,18.007-45.661
		c5.789-18.008,7.717-41.162,10.292-9.648c2.571,31.514,7.716,33.444,0,61.098c-7.72,27.654-3.217,16.078-15.437,25.081
		C178.282,913.895,177.639,874.021,177.639,874.021"/>
	<path clip-path="url(#SVGID_2_)" fill="#3D3D3D" d="M160.917,796.203c-1.286,12.862-6.431,21.865-4.502,27.011
		c1.93,5.146,3.216,12.22,15.436,3.858c12.219-8.359,12.862-5.787,21.866-30.869c9.003-25.083,7.718-10.292,9.648-32.8
		c1.929-22.51,0-14.793-11.577-5.146C180.212,767.904,160.917,796.203,160.917,796.203"/>
	<path clip-path="url(#SVGID_2_)" fill="#3D3D3D" d="M243.238,811.637c-9.646,30.871-27.654,60.455-29.584,102.258
		c-1.929,41.803,0.644,101.613,11.577,158.852s15.436,95.826,16.721,104.188c1.287,8.361,3.216-52.094,2.573-109.332
		C243.88,1010.363,243.238,811.637,243.238,811.637"/>
	<path clip-path="url(#SVGID_2_)" fill="#3D3D3D" d="M582.166,796.203c1.928,8.361,3.856,9.646-1.289,26.366
		c-5.145,16.722,6.434,12.864-11.574,20.581s-21.865,7.717-29.584-0.643c-7.717-8.361,1.929-10.291,14.793-14.791
		c12.861-4.503,15.434-1.287,19.936-15.438C578.948,798.131,582.166,796.203,582.166,796.203"/>
	<path clip-path="url(#SVGID_2_)" fill="#3D3D3D" d="M587.309,838.649c-3.857,18.007-5.787,28.297-12.861,52.735
		c-7.076,24.439-12.861,30.227-14.791,35.371c-1.932,5.146,10.933,26.369,17.363,7.717c6.432-18.648,8.361-39.873,7.719-58.523
		C584.094,857.299,587.309,838.649,587.309,838.649"/>
	<path clip-path="url(#SVGID_2_)" fill="#3D3D3D" d="M480.551,832.859c16.079,11.576,28.941,18.01,43.732,23.154
		c14.793,5.145,35.371,8.361,41.158,3.216c5.79-5.146,3.861,22.508-20.578,32.155c-24.438,9.646-46.306,12.22-59.168-2.573
		c-12.861-14.791-25.081-24.437-21.223-37.942C468.331,837.364,480.551,832.859,480.551,832.859"/>
	<path clip-path="url(#SVGID_2_)" fill="#3D3D3D" d="M567.674,630.747c2.035,5.381,1.748,20.865-7.581,42.537
		c-9.325,21.677-4.798,27.955-17.591,26.654c-12.798-1.313-32.694-2.697-24.859-16.122
		C525.479,670.395,567.674,630.747,567.674,630.747"/>
	<path clip-path="url(#SVGID_2_)" fill="#2F2F2F" d="M593.741,753.113c5.788,6.43,10.933,12.861,14.791,25.724
		c3.86,12.862,9.005,18.007,1.929,19.294c-7.074,1.289-27.654-10.291-25.08-15.436c2.57-5.143,7.074-7.717,8.36-14.791
		S593.741,753.113,593.741,753.113"/>
	<path clip-path="url(#SVGID_2_)" fill="#3D3D3D" d="M585.166,780.121c-2.57-1.713-66.028-39.869-73.316-40.729
		c-7.287-0.86,67.104,43.3,70.316,43.302C585.381,782.697,585.166,780.121,585.166,780.121"/>
	<path clip-path="url(#SVGID_2_)" fill="#3D3D3D" d="M508.85,693.945c-0.857,15.862,0.427,34.729,0.857,37.728
		c0.43,3.001-0.857-30.868,1.287-31.296c2.143-0.433,45.875,24.866,56.166,30.437C577.447,736.393,508.85,693.945,508.85,693.945"/>
	<path clip-path="url(#SVGID_2_)" fill="#3D3D3D" d="M647.762,520.301c11.578-4.503,32.801-8.361,39.877-16.078
		c7.072-7.717,15.436-10.29-3.219-11.576c-18.648-1.287-42.443-0.645-46.948,3.858c-4.499,4.501-5.786,9.004,1.931,12.219
		C647.121,511.94,647.762,520.301,647.762,520.301"/>
	<path clip-path="url(#SVGID_2_)" fill="#3D3D3D" d="M771.244,530.591c-13.506-5.789-25.082-12.22-36.016-19.937
		s-23.152-21.866-33.443-25.082c-10.289-3.216,9.648-5.788,17.365-1.93c7.717,3.859,43.734,14.792,48.234,24.438
		C771.885,517.729,771.244,530.591,771.244,530.591"/>
	<path clip-path="url(#SVGID_2_)" fill="#3D3D3D" d="M766.742,480.428c-1.287-10.29-0.645-24.439-9.004-37.945
		c-8.363-13.505-16.721-24.439-27.654-39.231c-10.934-14.791-18.65-28.298-35.371-40.518
		c-16.721-12.218-15.438-12.862-30.229-14.791s-10.933,21.223,7.719,42.447c18.648,21.224,28.297,20.58,46.305,39.873
		C736.514,449.557,766.742,480.428,766.742,480.428"/>
	<path clip-path="url(#SVGID_2_)" fill="#3D3D3D" d="M746.805,409.684c-5.145-5.788-44.375-49.521-51.449-61.74
		c-7.076-12.22-38.588-52.737-48.879-61.742c-10.289-9.003,45.02,37.302,59.811,57.239c14.793,19.938,25.727,24.44,31.514,38.588
		C743.588,396.178,746.805,409.684,746.805,409.684"/>
	<path clip-path="url(#SVGID_2_)" fill="#3D3D3D" d="M600.172,370.453c-0.643-20.58-5.146-36.657-2.57-57.239
		c2.57-20.579,16.076-99.041,18.649-113.833c2.571-14.793,19.937-93.897,23.151-97.756c-10.289,25.083-14.148,46.949-18.65,68.815
		c-4.501,21.867-18.01,90.039-18.65,100.328c-0.644,10.289-8.362,18.651-8.362,34.084c0,15.436-2.571,56.596-3.214,74.604
		s-9.648,70.744-9.648,90.681s-1.929,58.523,0,45.662c1.93-12.862,9.648-49.521,11.58-70.101c1.927-20.581,7.715-34.728,9.001-45.02
		C602.742,390.389,600.172,370.453,600.172,370.453"/>
	<path clip-path="url(#SVGID_2_)" fill="#3D3D3D" d="M71.523,562.104c9.968,1.608,58.525,1.929,65.599,5.145
		c7.074,3.216,21.544,5.789,23.151,3.216c1.609-2.574,7.075,1.285-0.321-7.075c-7.396-8.361-1.929-9.004-13.505-14.471
		c-11.577-5.466-38.266-11.255-52.093-7.074c-13.828,4.18-13.506,4.502-24.118,6.43c-10.612,1.93-18.008,0.965-16.4,6.11
		C55.445,559.533,71.523,562.104,71.523,562.104"/>
	<path clip-path="url(#SVGID_2_)" fill="#3D3D3D" d="M30.685,529.627c1.287,8.038,3.216,11.575,2.895,15.756
		c-0.323,4.181,6.751-2.895,14.791-5.788c8.039-2.895,9.968-2.252,19.616-4.181c9.646-1.929,22.188-4.501,11.575-8.039
		c-10.611-3.537-4.822-4.502-19.936-2.573C44.512,526.732,30.685,529.627,30.685,529.627"/>
	<path clip-path="url(#SVGID_2_)" fill="#3D3D3D" d="M159.31,537.022c1.929-4.502,9.003-3.216,1.287-13.183
		c-7.719-9.969-4.825-8.361-14.149-12.542c-9.325-4.181-43.411-14.149-54.987-13.185c-11.576,0.965-18.972-2.893-28.298-0.964
		c-9.325,1.929-13.826-1.608-16.078,3.216c-2.25,4.823,9.969,10.611,18.008,11.255c8.04,0.643,67.849,8.038,73.638,13.828
		C144.518,531.235,159.31,537.022,159.31,537.022"/>
	<path clip-path="url(#SVGID_2_)" fill="#3D3D3D" d="M35.187,492.968c-7.396,4.824-19.294,9.004-11.576,9.969
		c7.718,0.964,6.431,2.572,14.148-1.93c7.718-4.501,14.149-5.467,24.761-7.718c10.612-2.25,28.941,0.321,36.659-5.788
		c7.717-6.109,7.396,0,11.896-10.612c4.503-10.611-13.183-7.074-27.333-4.5c-14.149,2.571-12.22,7.074-26.047,11.576
		C43.869,488.466,35.187,492.968,35.187,492.968"/>
	<path clip-path="url(#SVGID_2_)" fill="#3D3D3D" d="M44.511,471.423c2.573-9.646,1.609-9.968,8.04-23.794
		c6.431-13.828,2.572-9.969,13.505-26.048c10.933-16.078,14.792-9.647,6.11,7.074c-8.681,16.721-6.431,26.047-14.471,34.086
		C49.657,470.781,44.511,471.423,44.511,471.423"/>
	<path clip-path="url(#SVGID_2_)" fill="#3D3D3D" d="M65.414,402.931c4.824-8.361,8.36-11.576,15.434-22.832
		c7.075-11.254,11.576-18.007,13.506-23.795c1.929-5.788,0.643-5.145-8.362,0.643c-9.004,5.79-9.967,1.287-16.399,13.185
		c-6.43,11.897-10.289,18.007-9.968,27.654c0.321,9.648,0.321,13.506,0,17.365C59.304,419.009,65.414,402.931,65.414,402.931"/>
	<path clip-path="url(#SVGID_2_)" fill="#3D3D3D" d="M139.373,352.124c0.965,13.827,9.325,47.913,11.576,63.347
		c2.251,15.436,7.074,42.768,6.431,49.521c-0.643,6.753-0.965,14.792-3.215,17.042c-2.251,2.252-2.573,2.252-8.039-13.505
		c-5.466-15.758-6.432-19.937-8.04-33.122c-1.608-13.183-2.893,9.97,0.966,24.761c3.858,14.792,7.074,17.687,11.897,27.656
		c4.823,9.967,7.396,10.289,9.004,18.972c1.608,8.682,2.895,9.647,0.644,13.505c-2.251,3.859-11.577-2.894-24.44-5.466
		c-12.863-2.573-17.363-11.898-18.65-19.937c-1.287-8.04,4.502-19.293-0.321-29.906c-4.824-10.612,4.823-36.98,7.074-46.305
		C126.511,409.362,139.373,352.124,139.373,352.124"/>
	<path clip-path="url(#SVGID_2_)" fill="#2F2F2F" d="M101.75,719.671c2.572-3.218,7.931-9.861,7.931-9.861
		c0.163,0.631,0.355,1.257,0.574,1.876c2.991,8.482,11.054,16.276,14.647,24.063c3.858,8.361,11.575,10.291,3.858,13.505
		c-7.717,3.216-23.152,8.36-27.011,3.216c-3.858-5.145-7.074,1.287-5.788-14.791"/>
	<path clip-path="url(#SVGID_2_)" fill="#2F2F2F" d="M173.137,685.157c-1.583,4.767,5.146-6.005,8.36-9.003
		c3.215-3.005,0.644-1.289,0.644-3.005c0-1.712,1.715,8.36,2.143,10.933c0.429,2.573,2.358,5.36,0.429,4.719
		C182.783,688.158,173.351,684.515,173.137,685.157"/>
	<path clip-path="url(#SVGID_2_)" fill="#3D3D3D" d="M556.44,150.504c-13.508-3.858-95.386-44.106-97.112-41.804
		C453.54,116.418,556.44,150.504,556.44,150.504"/>
	<path clip-path="url(#SVGID_2_)" fill="#3D3D3D" d="M178.925,196.166c7.075-10.934,45.341-49.521,49.199-54.665
		c-20.58,19.292-64.42,53.808-64.42,53.808l14.579,0.857"/>
	<path clip-path="url(#SVGID_2_)" fill="#3D3D3D" d="M532.645,63.039c4.898,8.507,31.668,79.573,32.82,84.11
		C566.617,151.684,532.645,63.039,532.645,63.039"/>
</g>
</svg>
