<?xml version="1.0" encoding="utf-8"?>
<!-- Generator: Adobe Illustrator 16.0.0, SVG Export Plug-In . SVG Version: 6.00 Build 0)  -->
<!DOCTYPE svg PUBLIC "-//W3C//DTD SVG 1.1//EN" "http://www.w3.org/Graphics/SVG/1.1/DTD/svg11.dtd">
<svg version="1.1" id="Layer_1" xmlns="http://www.w3.org/2000/svg" xmlns:xlink="http://www.w3.org/1999/xlink" x="0px" y="0px"
	 width="800px" height="1280px" viewBox="0 0 800 1280" enable-background="new 0 0 800 1280" xml:space="preserve">
<g>
	<defs>
		<rect id="SVGID_1_" x="16.736" y="29.824" width="767.534" height="1250.051"/>
	</defs>
	<clipPath id="SVGID_2_">
		<use xlink:href="#SVGID_1_"  overflow="visible"/>
	</clipPath>
	<path clip-path="url(#SVGID_2_)" fill="#2F2F2F" d="M767.98,1023.075c0-4.946-22.559-8.956-50.388-8.956s-50.386,4.01-50.386,8.956
		c0,4.947,22.557,8.958,50.386,8.958S767.98,1028.022,767.98,1023.075"/>
	<path clip-path="url(#SVGID_2_)" fill="#2F2F2F" d="M78.865,916.568c1.893,3.598,3.41,16.1,3.03,21.025
		c-0.377,4.925,1.516,12.313,1.896,14.206c0.377,1.895,0.945,5.494,0.945,5.494s-7.387-6.442-9.66-9.851
		c-2.273-3.41-7.576-18.186-7.008-20.646C68.636,924.335,78.865,916.568,78.865,916.568"/>
	<path clip-path="url(#SVGID_2_)" fill="#2F2F2F" d="M589.83,802.727c-9.852,3.599-144.672,26.329-159.445,26.897
		c-14.775,0.567-77.925,2.841-115.999-3.41c-38.073-6.25-115.391-33.527-123.347-35.8c-7.387,15.343-5.132,25.003-6.837,36.369
		c-1.705,11.364,0.559,17.615-0.577,22.162c-1.137,4.546-5.119,17.048-7.392,25.571c-2.273,8.524-10.231,21.594-13.073,26.141
		c-2.841,4.546-6.819,6.251-10.228,13.638c-3.41,7.388-3.412-2.273-3.412,7.388c0,9.66-6.251,31.822-10.797,40.914
		c-4.546,9.093-14.775,25.004-19.889,32.392c-5.115,7.388-14.207,8.523-15.343,16.479c-1.137,7.956,8.524,37.505,9.092,41.483
		c0.568,3.978,1.705,4.546,1.136,21.594c-0.568,17.048,2.273,59.668,2.273,73.306c0,13.639-0.568,31.823,0,46.029
		c0.569,14.207,5.683,60.236,6.251,72.738l0.569,12.502l264.242,1.704c0,0,0.568-15.344,2.273-26.708
		c1.704-11.365,0.568-17.616,2.841-22.731c2.273-5.114,5.114-9.66,6.251-0.568c1.136,9.093,2.273,21.595,3.409,30.118
		c1.137,8.524,3.978,19.321,3.978,19.321l28.413,0.568h202.302c0,0,4.546-62.51,5.114-67.623c0.568-5.114,2.273-38.643,2.841-56.826
		c0.569-18.186,0-35.801-0.567-49.439c-0.568-13.638-1.705-31.254-3.979-39.777c-2.273-8.524-3.409-15.912-2.273-20.458
		c1.138-4.546-5.682-19.89-5.113-30.687s-2.842-25.572-2.273-30.118s-29.55-130.699-30.117-135.246
		c-0.568-4.546,1.135-5.114,1.135-8.523c0-3.41-4.545-35.232-5.682-38.074c-1.137-2.841-6.06-1.325-6.06-1.325"/>
	<path clip-path="url(#SVGID_2_)" fill="#9B9B9B" d="M306.054,75.069c0.38-24.624,3.148-55.787-1.775-76.245H486.5
		c0,0-4.166,32.298-7.196,38.124c-3.03,5.823-13.351,25.103-14.821,30.72c-1.468,5.615-16.768,62.616-25.976,69.814
		c-9.212,7.197-43.684,29.17-55.428,26.896C371.333,162.106,306.054,75.069,306.054,75.069"/>
	<path clip-path="url(#SVGID_2_)" fill="#666666" d="M76.592,914.106c3.03,16.668-3.789,21.971,2.273,32.58
		c6.062,10.607,12.122,50.009,21.214,62.888c9.093,12.879,45.464-47.734,50.767-63.645c5.303-15.912,1.514-38.643-1.516-45.461
		C146.3,893.649,76.592,914.106,76.592,914.106"/>
	<path clip-path="url(#SVGID_2_)" fill="#666666" d="M688.043,1001.239c-1.516,12.881-2.272,22.732-6.818,31.065
		s-18.943,25.001-21.217,37.883s-1.516,18.943-3.03,35.611c-1.514,16.669,0,23.485-3.03,31.064
		c-3.029,7.578-6.062,15.913-9.092,25.763c-3.029,9.849-6.063,29.549,0.758,32.579c6.818,3.03,18.943-0.757,24.246-12.122
		s7.576-34.855,9.092-41.674c1.517-6.819,5.306-15.152,10.608-12.879c5.304,2.272,10.606,4.546,9.849,12.122
		c-0.757,7.575,1.515,14.395,0.758,18.94c-0.758,4.546,4.545,7.579,1.516,15.155c-3.03,7.576-2.275,8.333-6.063,14.395
		c-3.787,6.063-9.092,6.819-13.638,11.365s-6.06,0.757-10.606,6.819c-4.545,6.063-1.516,9.093-1.516,9.093s-6.82,7.576-13.639,9.092
		c-6.819,1.517-7.768-1.229-10.607,3.316c-2.842,4.546-3.41,5.683-3.695,8.808c-0.283,3.126-2.557,2.841-4.262,5.967
		c-1.705,3.125-4.546,12.219-0.567,13.354c3.978,1.137,12.786-3.125,14.491-2.273c1.703,0.853,3.408,6.819,6.535,5.968
		c3.125-0.854,7.67-4.546,10.228-6.535s16.479-11.365,22.731-14.775c6.25-3.41,20.172-8.808,23.866-13.638
		c3.694-4.831,13.07-20.174,15.911-26.993c2.842-6.819,4.262-11.081,8.24-18.468c3.979-7.388,11.648-19.605,13.354-22.447
		c1.705-2.841,1.422-5.397,1.989-12.786c0.567-7.387,0-22.445-1.136-35.8c-1.137-13.354-2.273-39.779-2.273-47.734
		c0-7.956-2.842-14.774-2.842-21.31s-1.136-7.956,0-16.196c1.137-8.238,3.979-10.512,3.126-13.922
		S688.043,1001.239,688.043,1001.239"/>
	<path clip-path="url(#SVGID_2_)" fill="#E7E7E7" d="M82.654,202.317c-7.576,16.234-18.941,60.938-22.731,92.004
		c-3.789,31.063-6.062,84.103-8.335,100.014c-2.273,15.911-12.122,71.222-15.911,88.649c-3.787,17.426-12.882,77.284-13.638,98.498
		c-0.757,21.217-5.303,29.553,0,39.401c5.305,9.849,3.032,34.096,1.516,63.646c-1.516,29.549,1.516,75.768,11.365,96.226
		c9.849,20.457,23.487,49.25,27.277,58.342c1.516,21.214,3.789,81.83,6.062,91.679c15.152-11.365,4.546-16.668,34.852-20.458
		c30.307-3.789,43.945,1.515,47.734,3.03c3.79,1.517,8.336-2.273,9.093-6.819s-3.79-55.312-3.79-61.372
		c0-6.06-6.059-22.728-0.756-37.883c5.303-15.154,7.576-22.732,8.335-30.309c0.757-7.576-5.305-21.216,0-34.096
		c5.303-12.879,3.787-26.52,3.787-43.188c0-16.669-1.871-28.793,0.2-34.096c2.073-5.304-5.103-10.606,0-15.152
		c5.105-4.546,9.649-3.789,11.165-10.608s-3.03-31.065-9.092-32.581c-6.06-1.515-10.606,0-7.576-11.366
		c3.03-11.365,3.03-9.093,6.062-8.333c3.03,0.757,14.395,50.01,18.941,67.435s12.122,41.672,9.092,50.765
		c-3.03,9.092-4.546,31.065-3.789,38.642c0.759,7.576-0.757,7.578-2.273,19.7c-1.514,12.122-1.639,18.185,6.758,25.004
		c8.397,6.818,87.844,57.581,203.067,44.702c115.222-12.88,187.961-27.275,189.476-31.064c1.516-3.789-2.273-21.973-5.304-31.065
		c2.273-17.428,5.304-29.548,3.787-44.701c-1.514-15.155-5.733-32.839-3.787-35.612c5.304-7.576,12.122-20.458,9.849-29.55
		c-2.272-9.092-18.184-26.521-15.153-32.582c3.032-6.061,15.913-22.729,21.973-35.609c6.063-12.882,9.093-37.885,12.122-44.704
		c3.033-6.819,4.549-6.819,6.063,3.029c1.517,9.853,0,18.944,0.758,32.582c0.759,13.639-0.758,12.123,0,26.518
		c0.759,14.397,0.759,17.428,4.546,33.34c3.789,15.91,5.305,20.456,5.305,31.821c0,11.366,1.515,14.398,1.515,21.217
		c0,6.819,0,6.817-2.273,15.152s2.273,20.458,5.305,28.793c3.03,8.335,9.092,15.154,9.092,26.52s-2.272,21.972,3.787,37.883
		c6.063,15.911,12.125,28.79,11.365,36.369c-0.756,7.578,4.549,18.942,8.336,33.339c3.789,14.395,3.032,34.093,2.273,42.428
		c-0.758,8.336-2.273,94.709-2.273,106.834c18.184-6.819,33.34-8.333,48.491-8.333c15.154,0,47.733,4.546,53.039,9.092
		c0-31.822-3.789-97.74-1.517-103.803c2.273-6.063,8.336-71.98,12.882-90.922c4.546-18.942,4.546-74.252-6.819-156.841
		S728.2,294.322,722.139,270.075c-6.061-24.246-9.85-56.069-26.518-64.404c-16.671-8.333-228.822-78.041-228.822-78.041
		l-81.072,42.431l-75.767-47.734l-144.718,34.096L82.654,202.317z"/>
	<path clip-path="url(#SVGID_2_)" fill="#CDCDCD" d="M170.545,610.275c-15.911-0.757-65.162-18.94-77.284-18.184
		c25.761,7.576,63.646,17.425,68.192,23.487c4.546,6.062,14.395,8.335,9.092,15.91c-5.303,7.579-6.819,13.64-3.03,13.64
		c3.787,0,11.365-4.546,11.365-10.606C178.88,628.46,170.545,610.275,170.545,610.275"/>
	<path clip-path="url(#SVGID_2_)" fill="#CDCDCD" d="M62.954,842.885c-2.273-19.701,3.789-33.339-2.273-53.796
		c-6.06-20.458-14.018-24.624-9.472-16.289S62.954,842.885,62.954,842.885"/>
	<path clip-path="url(#SVGID_2_)" fill="#CDCDCD" d="M169.977,611.695c-2.273-5.114-7.103-5.684-7.387-10.797
		c-0.285-5.114,3.977-10.229,4.546-15.344c0.568-5.113-1.137-11.364-2.557-18.469c-1.421-7.103-1.989-9.092-2.558-15.343
		c-0.568-6.251-2.841-16.479-3.693-26.992c-0.853-10.513-2.273-37.79-1.989-48.018c0.284-10.229,2.273-13.354,3.693-22.447
		c1.421-9.092,0-15.059,1.137-22.162c1.136-7.103,2.841-19.889,0.568-24.435c-2.273-4.546-3.125,8.524-5.398-8.524
		s-2.842,7.103-2.273,14.491c0.568,7.387,1.704,7.955,3.125,13.922s3.126,8.808,1.989,15.059c-1.137,6.251-3.41,4.262-2.273,9.945
		c1.136,5.682-3.125,16.195-2.557,23.867c0.568,7.671,0.568,34.664,2.273,41.482c1.705,6.819,2.841,40.063,4.83,46.882
		c1.989,6.818,3.978,18.185,3.41,21.31c-0.569,3.126-6.535-2.841-8.24,1.421c-1.705,4.263-2.273,7.104,0.568,10.514
		C160.032,601.466,169.977,611.695,169.977,611.695"/>
	<path clip-path="url(#SVGID_2_)" fill="#CDCDCD" d="M578.178,633.763c8.336-12.881,32.582-54.553,30.31-68.947
		c-9.853,10.605-18.188,12.122-25.763,19.697c-7.576,7.578-22.73,22.73-14.396,15.154s15.911-11.365,20.457-14.395
		c4.546-3.032,3.789,0.757,0,14.395C584.997,613.306,578.178,633.763,578.178,633.763"/>
	<path clip-path="url(#SVGID_2_)" fill="#CDCDCD" d="M635.004,414.035c-1.043,0.418-2.1,0.748-3.154,1.018
		c-6.602,1.694-13.07,1.019-15.029,4.285c-2.273,3.789-0.755,2.273,0.759,7.578c1.515,5.303,2.273,11.363,2.273,21.972
		c0,10.608,5.305,17.427,4.546,2.273c-0.76-15.152-3.789-18.942-1.516-24.245C625.155,421.611,635.004,414.035,635.004,414.035"/>
	<path clip-path="url(#SVGID_2_)" fill="#CDCDCD" d="M646.372,698.924c9.851-5.306,25.76-3.787,32.58-5.304
		c-28.793,12.122-34.855,17.425-40.158,18.941c-5.304,1.516-12.879,10.608-9.849,7.576
		C631.975,717.105,636.521,704.229,646.372,698.924"/>
	<path clip-path="url(#SVGID_2_)" fill="#D9D9D9" d="M478.543,140.89c23.299,9.66,156.84,54.096,174.457,61.427
		c17.617,7.333,23.867,16.993,25.004,24.949s-26.141,82.398-31.254,93.195c-5.115,10.797-12.502,15.911-5.115,10.797
		c7.388-5.114,31.255-69.328,42.052-87.513c10.797-18.184,12.502-25.003,19.89-27.844c-7.388-15.912-15.344-23.299-42.053-35.801
		c-26.708-12.502-160.818-78.425-185.253-73.592C451.836,111.34,478.543,140.89,478.543,140.89"/>
	<path clip-path="url(#SVGID_2_)" fill="#D9D9D9" d="M301.814,135.729c-28.981,1.185-104.56,25.192-125.018,28.815
		c-20.457,3.624-77.283,30.237-81.83,34.546c5.115,29.882,31.823,96.368,35.801,106.029c3.978,9.66,1.137,13.07,0.568,17.616
		c-0.568,4.546-46.597-95.718-48.302-102.98c-1.705-7.263-7.387-11.132-3.978-17.437c3.41-6.305,39.21-33.027,60.236-42.397
		c21.026-9.369,52.848-15.148,72.738-24.192c19.889-9.044,52.848-20.601,64.781-24.387c11.934-3.79,24.436-11.366,25.004-14.775
		C302.382,93.157,301.814,135.729,301.814,135.729"/>
	<path clip-path="url(#SVGID_2_)" fill="#666666" d="M423.99,167.408c-2.721,8.324-10.229,14.018-14.775,23.487
		c-4.545,9.472-1.893,13.525-9.472,10.172c-7.576-3.352-16.288-9.792-23.867-6.003c-7.576,3.787-9.092,5.619-11.365,7.165
		c-2.273,1.548-9.779-17.75-22.883-28.559c-13.106-10.808,16.823-22.553,24.02-23.689c7.198-1.137,24.626,3.032,34.095,3.409
		C409.215,153.771,423.99,167.408,423.99,167.408"/>
	<path clip-path="url(#SVGID_2_)" fill="#666666" d="M401.639,197.716c5.303,16.291,9.092,12.502,16.291,65.162
		c7.195,52.657,17.807,166.312,19.32,193.209s9.469,160.629,10.606,181.085c1.136,20.457,6.442,114.034,7.198,123.883
		c-12.881,17.806-46.977,53.035-53.416,59.478c-25.004-27.277-45.841-50.768-56.447-61.373
		c-0.759-37.125,2.653-135.246,3.03-161.386c0.38-26.141,0.38-251.553-0.379-275.419c-0.757-23.867,0-35.232,0.379-47.734
		c0.38-12.502,4.167-22.351,7.956-34.852c3.789-12.502,9.092-37.506,10.608-44.705C368.299,187.867,401.639,197.716,401.639,197.716
		"/>
	<path clip-path="url(#SVGID_2_)" fill="#666666" d="M346.089,175.133c-16.7,3.457-30.259,29.513-31.632,26.225
		c-22.446-53.785-33.67-93.838-25.715-93.804C291.154,107.562,346.089,175.133,346.089,175.133"/>
	<path clip-path="url(#SVGID_2_)" fill="#666666" d="M406.374,172.712c14.775,9.661,46.747,37.58,48.683,33.716
		c1.934-3.862,37.359-78.668,34.853-83.723c-2.508-5.055-9.093-19.889-11.366-15.343S406.374,172.712,406.374,172.712"/>
	<path clip-path="url(#SVGID_2_)" fill="#E7E7E7" d="M389.516,151.119c21.214,11.365,53.037,45.461,64.402,57.583
		c19.701-39.399,18.376-36.557,25.195-55.31c6.818-18.753,11.648-33.528,5.682-46.029c-5.966-12.502-15.343-35.517-19.035-44.609
		c-3.695,13.638-4.832,25.004-21.027,39.494C428.537,116.739,389.516,151.119,389.516,151.119"/>
	<path clip-path="url(#SVGID_2_)" fill="#E7E7E7" d="M385.349,151.498c-6.819-1.893-5.683-4.546-20.078,4.926l-14.397,9.469
		c0,0-26.14,21.215-34.853,32.959c-2.653,4.169-2.273,2.274-4.926-4.166c-2.65-6.44-12.879-37.505-17.425-53.417
		c-4.546-15.911-8.715-24.624-4.926-33.716c3.79-9.092,15.155-33.339,18.564-42.81c2.273,8.714,5.303,17.047,16.289,27.276
		c10.988,10.229,29.172,28.793,38.642,36.749c9.472,7.955,17.048,15.911,18.943,17.427
		C383.076,147.709,385.349,151.498,385.349,151.498"/>
	<path clip-path="url(#SVGID_2_)" fill="#CDCDCD" d="M668.344,942.14c-1.138-6.819-2.273-21.026,4.545-23.299
		c6.819-2.273,21.026-9.092,53.418-7.387c-44.894,6.818-50.576,7.956-53.985,12.502C668.911,928.502,668.344,942.14,668.344,942.14"
		/>
	<path clip-path="url(#SVGID_2_)" fill="#CDCDCD" d="M156.149,845.155c-9.472-7.008-21.974-13.259-41.294-12.122
		c19.32,2.842,34.664,7.388,36.937,13.639s5.114,18.185,5.682,23.299C158.042,875.085,156.149,845.155,156.149,845.155"/>
</g>
</svg>
