<?xml version="1.0" encoding="utf-8"?>
<!-- Generator: Adobe Illustrator 16.0.0, SVG Export Plug-In . SVG Version: 6.00 Build 0)  -->
<!DOCTYPE svg PUBLIC "-//W3C//DTD SVG 1.1//EN" "http://www.w3.org/Graphics/SVG/1.1/DTD/svg11.dtd">
<svg version="1.1" id="Layer_1" xmlns="http://www.w3.org/2000/svg" xmlns:xlink="http://www.w3.org/1999/xlink" x="0px" y="0px" viewBox="5 389 789 501" enable-background="new 0 0 800 1280" xml:space="preserve">
<g>
	<defs>
		<rect id="SVGID_1_" x="5.746" y="389.728" width="788.51" height="500.545"/>
	</defs>
	<clipPath id="SVGID_2_">
		<use xlink:href="#SVGID_1_"  overflow="visible"/>
	</clipPath>
	<path clip-path="url(#SVGID_2_)" fill="#B5B5B5" d="M382.658,434.785c0,0-2.367-25.231-4.734-24.632
		c-2.367,0.601-9.862-2.804-9.862-2.804l-28.606,13.016l-29.588,2.403l-32.55-6.008l-42.609-4.806l-31.366-7.208l-46.161-10.212
		l-22.488-1.203l-18.938,3.605l-7.692,10.213c0,0,4.733,23.43,4.733,25.231c0,1.802,66.281,59.474,66.281,59.474l89.362,22.83
		l75.75-36.647L382.658,434.785z"/>
	<path clip-path="url(#SVGID_2_)" fill="#1B1B1B" d="M90.605,553.133c-2.072,2.402-6.214,1.803-7.398,7.508
		c-1.184,5.707-0.296,36.046-0.592,39.051c-0.295,3.002-0.295,18.923,0.889,21.325c1.183,2.404-0.296,9.013,13.019,16.523
		c13.316,7.51,138.778,51.964,141.44,51.964c2.664,0,10.357-14.116,15.387-19.524c5.03-5.406,7.397-4.505,7.397-4.505
		s-3.551-3.604,14.203,4.505c17.754,8.109,40.243,21.327,50.008,29.438c9.764,8.109,32.845,29.137,63.026,40.252
		c30.181,11.111,52.668,16.219,69.242,17.119c16.569,0.902,73.089,1.203,93.802-0.9c20.711-2.104,63.912-6.309,89.361-10.214
		c25.445-3.902,80.779-15.919,103.27-22.827c22.486-6.908,50.598-29.438,50.598-29.438l-2.959-30.639
		c0,0-12.428-10.813-15.98-13.517c-3.549-2.703-660.94-108.538-660.94-108.538L90.605,553.133"/>
	<path clip-path="url(#SVGID_2_)" fill="#404040" d="M120.687,392.531c-8.285,3.204-12.229,6.407-14.992,13.616
		c-2.761,7.21-0.789,4.807-8.284,23.229c-7.497,18.425-11.442,24.832-11.837,39.25c-0.396,14.42-2.367,33.642-1.971,47.261
		c0.393,13.618,3.55,19.223,5.522,30.036c1.972,10.815,1.183,11.213,5.129,18.424c3.946,7.209,44.188,30.04,64.703,33.643
		c20.515,3.606,43.399,10.414,59.18,14.819c15.782,4.404,31.957,13.216,39.06,16.421c7.101,3.204,54.05,25.631,74.96,40.05
		c20.911,14.419,65.889,46.858,89.56,50.463c23.67,3.604,33.934,7.209,86.799,7.209s82.455-1.202,99.025-3.604
		c16.57-2.403,87.193-13.218,110.076-20.826c22.885-7.609,57.998-28.838,59.576-32.041c1.576-3.203,2.369-16.021-0.395-25.232
		c-2.764-9.21-34.324-40.048-51.684-47.66c-17.359-7.609-56.025-20.825-60.365-22.829c-4.338-2.001-6.707,0.801-13.809-0.4
		c-7.104-1.203-86.799-35.646-91.139-42.453c-4.338-6.809-17.752-10.013-17.752-10.013S386.604,411.355,382.265,407.75
		c-4.341-3.606-5.524-6.809-8.68-6.01c-3.158,0.803-6.314,0.402-1.974,7.211c4.341,6.811,9.468,14.016,9.468,14.016l-3.944,6.01
		c0,0-7.101-4.407-13.415-2.803c-6.313,1.601-16.57,8.41-24.855,13.215c-8.286,4.807-36.691,28.035-52.078,38.047
		c-15.388,10.013-23.278,17.622-44.977,12.417c-21.699-5.208-63.125-21.627-78.906-32.842
		c-15.781-11.216-44.188-26.435-46.951-34.844c-2.761-8.412-7.495-8.811-4.734-14.02c2.762-5.205,1.974-9.21,13.02-10.812
		c11.047-1.603,18.148-6.008,39.453-0.401c21.305,5.607,57.208,16.421,67.861,16.82c10.653,0.401,41.821,3.606,55.629,6.408
		c13.809,2.803,29.196,6.01,41.821,4.406c12.625-1.604,40.242-14.018,40.242-14.018l-1.184-3.204c0,0-22.095,12.815-37.482,11.615
		c-15.386-1.202-32.746-0.802-47.738-3.604c-14.992-2.805-42.609-3.605-52.079-6.409c-9.468-2.804-43.003-11.614-57.207-14.419
		c-14.204-2.803-36.691-4.805-43.004-4.406C124.239,390.528,120.687,392.531,120.687,392.531"/>
	<path clip-path="url(#SVGID_2_)" fill="#131313" d="M398.045,424.872c-2.367-2.103-5.918-3.906-10.653-1.801
		c-4.734,2.101-13.315,13.516-15.386,16.821c-2.07,3.305,0.296,7.208,0.296,7.208s0.888,1.203,3.847-2.705
		c2.958-3.903,5.03-8.108,7.693-11.714c2.662-3.603,5.622-4.806,9.172-6.006C396.566,425.474,398.045,424.872,398.045,424.872"/>
	<path clip-path="url(#SVGID_2_)" fill="#131313" d="M395.678,458.813c2.959-3.002,5.324-4.206,7.396-7.508
		c2.072-3.304,7.693-10.214,9.471-12.016c1.774-1.802,2.957-5.106,5.029-3.003c2.072,2.102,3.551,1.5,1.773,4.805
		c-1.773,3.304-6.211,8.112-8.283,11.115c-2.07,3.004-7.102,7.209-8.876,9.612c-1.775,2.404-5.031,5.106-5.624,3.604
		C395.973,463.921,395.678,458.813,395.678,458.813"/>
	<path clip-path="url(#SVGID_2_)" fill="#131313" d="M420.238,478.939c2.365-3.002,7.395-7.208,8.875-9.913
		c1.48-2.703,4.734-9.01,6.808-11.413c2.07-2.404,5.622-7.811,6.806-6.008c1.182,1.802,3.846,2.102,1.774,5.106
		c-2.07,3.003-7.397,9.311-9.765,12.315s-5.029,7.811-6.806,10.813c-1.774,3.004-3.255,5.708-5.622,5.106
		C419.941,484.347,420.238,478.939,420.238,478.939"/>
	<path clip-path="url(#SVGID_2_)" fill="#131313" d="M446.869,496.362c2.663-3.004,6.807-8.711,8.286-10.514
		c1.479-1.802,6.509-7.809,8.284-10.212c1.774-2.403,4.733-6.008,5.621-4.506c0.889,1.502,0.889,3.905-1.184,6.308
		c-2.068,2.403-2.663,3.904-5.918,7.811c-3.254,3.904-11.244,13.517-11.244,13.517l-5.326,1.802L446.869,496.362z"/>
	<path clip-path="url(#SVGID_2_)" fill="#131313" d="M469.65,514.985c3.554-3.604,5.033-4.807,7.104-8.411
		c2.072-3.603,4.735-6.908,6.512-9.912c1.775-3.002,4.438-6.307,6.804-7.511c2.367-1.201,4.439-2.402,5.325,0.901
		c0.891,3.306-1.182,3.906-4.141,7.21c-2.959,3.305-2.07,1.802-5.919,7.209c-3.846,5.408-6.214,7.51-7.397,10.514
		c-1.184,3.004-0.889,5.708-3.848,5.408C471.133,520.091,469.65,514.985,469.65,514.985"/>
	<path clip-path="url(#SVGID_2_)" fill="#131313" d="M493.745,531.506c2.663-2.103,5.325-5.106,7.988-8.109
		c2.665-3.003,7.992-7.51,10.061-10.815c2.072-3.304,3.552-8.411,4.735-5.405c1.184,3.002,3.848,2.101,0.296,5.706
		c-3.552,3.605-3.847,4.805-8.286,9.313c-4.439,4.505-5.029,8.71-7.1,11.413c-2.072,2.705-5.328,2.705-6.216,2.705
		C494.338,536.313,493.745,531.506,493.745,531.506"/>
	<path clip-path="url(#SVGID_2_)" fill="#232323" d="M372.893,411.228c4.736,6.007,11.541,17.723,25.151,25.833
		c13.613,8.111,71.314,47.761,85.812,57.973c14.5,10.212,44.977,39.952,44.977,39.952s-1.479,2.101-2.959,1.5
		c-1.479-0.599-14.202-10.213-17.752-14.718c-3.552-4.506-12.428-12.015-15.094-15.621c-2.661-3.603-65.097-45.956-65.097-45.956
		l-28.111-18.925c0,0-22.783-17.121-23.967-20.726C374.67,416.935,372.893,411.228,372.893,411.228"/>
	<path clip-path="url(#SVGID_2_)" fill="#2F2F2F" d="M520.352,553.133c-2.764,4.006-59.971,44.055-65.494,44.456
		c-5.522,0.401-9.471,3.205-9.863-1.2c-0.395-4.406-1.972-32.04-5.918-42.454c-3.943-10.414-9.469-37.248-29.195-48.061
		c-19.727-10.814-63.519-42.854-67.86-44.857c-4.341-2.003-4.734-7.208-4.341-8.412c0.396-1.201,11.837-10.413,15.388-12.816
		c3.55-2.401,10.256-1.601,10.652,2.004c0.395,3.606,14.993,22.429,23.278,27.235c8.284,4.806,39.055,19.625,47.341,27.234
		c8.286,7.609,22.884,26.433,28.802,28.837c5.919,2.401,6.709,0,12.626,1.601c5.92,1.601,3.947,1.202,9.863,7.209
		C491.55,539.917,520.352,553.133,520.352,553.133"/>
	<path clip-path="url(#SVGID_2_)" fill="#2F2F2F" d="M622.338,634.837c5.621,1.804,6.213,4.505,19.234,4.805
		c13.018,0.301,52.375,0.301,65.688,1.502c13.316,1.201,14.797-0.601,24.855,3.604c10.061,4.205,26.381,3.418,16.32,14.532
		c-10.061,11.112-28.605,13.979-12.006,15.414c10.256,0.884,2.965,2.036,9.182,1.435c6.213-0.602,2.189,0.16,10.475-1.944
		c8.283-2.101,14.793-1.2,7.689,3.604c-7.1,4.807-18.047,13.818-30.771,17.123c-12.725,3.306-135.818,29.736-139.072,28.836
		c-3.256-0.9,4.438-19.523,7.396-29.736S622.338,634.837,622.338,634.837"/>
	<path clip-path="url(#SVGID_2_)" fill="#2F2F2F" d="M588.605,679.594c0,0-9.766,41.753-10.063,44.154
		c-0.293,2.402-134.928,8.711-151.205,1.803c-16.273-6.908-42.904-20.725-42.904-20.725s64.21,11.411,80.484,10.813
		c16.273-0.601,57.701-4.206,71.311-9.313c13.611-5.105,29-5.105,36.1-12.916c7.104-7.809,16.57-15.02,16.57-15.02"/>
	<path clip-path="url(#SVGID_2_)" fill="#2F2F2F" d="M425.661,714.138c-11.046-4.407-54.445-29.642-60.364-40.052
		c-5.917-10.413-13.019-10.814-7.101-21.627c5.918-10.814,9.076-14.419,23.673-24.432c14.598-10.012,28.406-12.816,26.039-16.422
		c-2.367-3.603-63.125-26.833-81.668-22.025c-18.543,4.806-31.563,12.014-36.296,18.423c-4.736,6.409-14.205,17.62-14.205,20.425
		c0,2.804,12.23,13.217,22.882,16.821c10.653,3.605,28.012,18.023,36.693,23.629c8.679,5.611,35.113,26.837,44.977,32.042
		c9.862,5.207,41.82,21.228,43.003,21.629C424.479,722.946,425.661,714.138,425.661,714.138"/>
	<path clip-path="url(#SVGID_2_)" fill="#2F2F2F" d="M103.723,418.963c0,0-8.285,10.013-13.415,26.434
		c-5.128,16.421-6.706,32.441-7.102,44.055c-0.394,11.615,3.946,59.274,8.285,67.684c4.341,8.411,21.305,22.83,23.279,23.229
		c1.972,0.401,17.359,12.018,39.057,17.223c21.7,5.208,36.691,9.213,49.712,13.218c13.02,4.003,24.067,11.214,35.509,13.616
		c11.44,2.402,16.965,9.211,18.937,4.806c1.973-4.406,5.918-13.619,8.68-20.024c2.762-6.407,20.911-2.402,0.79-15.22
		c-20.121-12.816-40.637-20.427-61.547-24.432c-20.912-4.005-46.557-14.817-60.759-30.436c-14.204-15.621-24.462-15.22-29.59-31.642
		c-5.13-16.42-3.945-25.231,1.184-39.249c5.128-14.019,9.074-16.021,9.469-19.625c0.393-3.604,1.182-2.404-5.918-9.612
		c-7.102-7.21-15.387-21.627-15.387-21.627"/>
	<path clip-path="url(#SVGID_2_)" fill="#2F2F2F" d="M334.526,466.245c0,0,23.277,15.62,32.351,20.425
		c9.075,4.808,29.59,18.425,41.031,30.039c11.439,11.617,18.543,16.82,22.093,30.441c3.552,13.615,7.103,22.026,7.103,30.836
		c0,8.813,0.789,18.824,0.789,18.824s-19.333-2.003-28.012-5.207c-8.681-3.203-61.153-15.621-68.648-16.421
		c-7.497-0.799-37.875,4.809-41.426,6.411c-3.551,1.6,21.699-14.018,24.855-17.624s9.074,0.801-0.79-10.012
		c-9.862-10.813-20.515-16.021-28.406-20.025c-7.89-4.005-9.469-13.618,8.286-9.212c17.755,4.406,14.596,3.205,24.855,12.017
		c10.258,8.807,37.086,20.023,50.106,20.425c13.019,0.401,13.413,2.003,17.36-5.607c3.943-7.611,7.495,4.003,4.337-10.813
		c-3.155-14.82-26.434-30.039-35.113-39.652C356.619,491.478,334.526,466.245,334.526,466.245"/>
	<path clip-path="url(#SVGID_2_)" fill="#2F2F2F" d="M617.604,623.722c3.254-5.708,15.092-22.829,18.938-29.438
		c3.846-6.607,6.807-10.812,10.355-13.215c3.551-2.403,7.988-6.608,9.176-6.309c1.182,0.301-9.471,9.312-10.064,10.212
		c-0.59,0.9,1.48,0.301-1.479,5.408c-2.957,5.106-5.918,9.311-8.283,12.314c-2.369,3.004-16.572,25.533-16.572,25.533
		L617.604,623.722z"/>
	<path clip-path="url(#SVGID_2_)" fill="#2F2F2F" d="M366.341,606.582c0,0,22.601,5.735,62.151,6.453
		c39.552,0.718,62.859-1.433,62.859-1.433s24.718,32.98,37.434,43.018c12.711,10.037-2.121,50.188-2.121,50.188l-156.792-84.602
		L366.341,606.582z"/>
	<path clip-path="url(#SVGID_2_)" fill="#2F2F2F" d="M612.479,611.243l-7.063,22.943l-32.49,17.207c0,0-5.648-30.829-19.775-50.904
		c-14.125-20.075-24.719-22.944-23.307-32.264S612.479,611.243,612.479,611.243"/>
	<path clip-path="url(#SVGID_2_)" fill="#B5B5B5" d="M306.38,567.065c0,0-2.366-25.231-4.734-24.632
		c-2.367,0.601-9.863-2.803-9.863-2.803l-28.604,13.016l-29.59,2.404l-32.55-6.008l-42.61-4.805l-31.364-7.209l-46.161-10.212
		l-22.488-1.203l-18.938,3.605l-7.692,10.213c0,0,4.733,23.429,4.733,25.232c0,1.802,66.283,59.473,66.283,59.473l89.361,22.831
		l75.75-36.647L306.38,567.065z"/>
	<path clip-path="url(#SVGID_2_)" fill="#1B1B1B" d="M14.327,685.414c-2.071,2.401-6.213,1.803-7.398,7.508
		c-1.183,5.707-0.295,36.046-0.592,39.051c-0.295,3.003-0.295,18.924,0.889,21.326c1.184,2.403-0.297,9.012,13.019,16.522
		s138.778,51.964,141.44,51.964c2.664,0,10.357-14.115,15.387-19.525c5.03-5.405,7.397-4.504,7.397-4.504s-3.551-3.605,14.203,4.504
		c17.755,8.111,40.243,21.328,50.008,29.438c9.764,8.111,32.845,29.138,63.026,40.252c30.183,11.112,52.671,16.221,69.241,17.121
		s73.088,1.202,93.801-0.9c20.711-2.104,63.914-6.309,89.361-10.215c25.445-3.902,80.779-15.918,103.27-22.828
		c22.488-6.907,50.6-29.438,50.6-29.438l-2.959-30.638c0,0-12.43-10.813-15.98-13.517C695.49,778.83,38.098,672.997,38.098,672.997
		L14.327,685.414"/>
	<path clip-path="url(#SVGID_2_)" fill="#404040" d="M44.41,524.811c-8.285,3.205-12.229,6.408-14.992,13.616
		c-2.762,7.211-0.79,4.807-8.284,23.229c-7.496,18.425-11.442,24.833-11.837,39.25c-0.396,14.42-2.367,33.642-1.972,47.261
		c0.394,13.617,3.55,19.223,5.522,30.035c1.973,10.816,1.184,11.214,5.129,18.424c3.947,7.209,44.188,30.04,64.703,33.644
		c20.516,3.606,43.399,10.413,59.18,14.819c15.781,4.404,31.957,13.217,39.06,16.421c7.101,3.204,54.051,25.631,74.961,40.049
		c20.911,14.419,65.887,46.858,89.559,50.464c23.671,3.604,33.933,7.209,86.799,7.209c52.864,0,82.455-1.203,99.025-3.604
		c16.57-2.404,87.193-13.218,110.076-20.826c22.885-7.609,57.996-28.838,59.576-32.042c1.576-3.203,2.367-16.02-0.395-25.232
		c-2.764-9.209-34.326-40.047-51.686-47.659c-17.359-7.608-56.023-20.825-60.363-22.829c-4.338-2-6.707,0.802-13.809-0.399
		c-7.102-1.202-86.798-35.646-91.139-42.453c-4.338-6.81-13.807-10.813-13.807-10.813l-3.947,0.801
		c0,0-155.445-110.539-159.784-114.143c-4.341-3.605-5.525-6.809-8.68-6.011c-3.156,0.803-6.314,0.402-1.974,7.211
		c4.34,6.811,9.47,14.016,9.47,14.016l-3.945,6.011c0,0-7.102-4.406-13.416-2.803c-6.313,1.601-16.57,8.41-24.856,13.215
		c-8.284,4.807-36.69,28.035-52.077,38.047c-15.389,10.013-23.278,17.622-44.978,12.417c-21.699-5.208-63.125-21.627-78.907-32.842
		c-15.781-11.216-44.188-26.435-46.95-34.845c-2.762-8.412-7.495-8.81-4.734-14.019c2.762-5.205,1.973-9.21,13.02-10.812
		c11.047-1.603,18.148-6.008,39.453-0.401c21.304,5.607,57.208,16.422,67.861,16.82c10.652,0.402,41.82,3.606,55.628,6.409
		c13.808,2.802,29.195,6.01,41.821,4.407c12.624-1.604,40.242-14.019,40.242-14.019l-1.184-3.204c0,0-22.095,12.815-37.481,11.615
		c-15.387-1.202-32.747-0.802-47.739-3.604c-14.992-2.806-42.61-3.605-52.078-6.41c-9.469-2.804-43.004-11.614-57.208-14.418
		c-14.204-2.804-36.691-4.805-43.004-4.407C47.961,522.808,44.41,524.811,44.41,524.811"/>
	<path clip-path="url(#SVGID_2_)" fill="#131313" d="M321.768,557.152c-2.367-2.103-5.918-3.906-10.653-1.801
		c-4.734,2.1-13.316,13.515-15.387,16.82c-2.071,3.305,0.296,7.209,0.296,7.209s0.888,1.203,3.846-2.705
		c2.959-3.904,5.03-8.108,7.694-11.714c2.663-3.604,5.621-4.806,9.172-6.007C320.288,557.754,321.768,557.152,321.768,557.152"/>
	<path clip-path="url(#SVGID_2_)" fill="#131313" d="M319.4,591.094c2.958-3.003,5.325-4.207,7.397-7.509
		c2.071-3.303,7.694-10.214,9.47-12.015c1.774-1.802,2.958-5.106,5.03-3.003c2.071,2.103,3.551,1.5,1.774,4.804
		c-1.774,3.304-6.213,8.112-8.285,11.115c-2.072,3.003-7.102,7.209-8.877,9.612c-1.775,2.404-5.031,5.106-5.623,3.604
		C319.695,596.202,319.4,591.094,319.4,591.094"/>
	<path clip-path="url(#SVGID_2_)" fill="#131313" d="M343.96,611.22c2.366-3.002,7.396-7.208,8.876-9.913
		c1.479-2.703,4.735-9.009,6.806-11.413c2.071-2.404,5.623-7.81,6.807-6.007c1.182,1.802,3.845,2.101,1.774,5.106
		c-2.071,3.003-7.397,9.311-9.765,12.314c-2.368,3.004-5.03,7.812-6.805,10.813c-1.776,3.004-3.255,5.708-5.623,5.106
		C343.663,616.627,343.96,611.22,343.96,611.22"/>
	<path clip-path="url(#SVGID_2_)" fill="#131313" d="M370.591,628.642c2.664-3.004,6.806-8.711,8.285-10.514
		c1.479-1.802,6.511-7.809,8.286-10.212c1.774-2.403,4.733-6.008,5.621-4.506c0.888,1.502,0.888,3.905-1.184,6.309
		c-2.07,2.403-2.663,3.904-5.918,7.81c-3.253,3.904-11.243,13.517-11.243,13.517l-5.326,1.802L370.591,628.642z"/>
	<path clip-path="url(#SVGID_2_)" fill="#131313" d="M393.374,647.266c3.552-3.604,5.032-4.809,7.104-8.411
		c2.069-3.603,4.734-6.908,6.511-9.912c1.773-3.002,4.436-6.307,6.804-7.511c2.368-1.201,4.438-2.402,5.327,0.901
		c0.887,3.306-1.184,3.906-4.143,7.21c-2.961,3.306-2.07,1.802-5.918,7.208c-3.847,5.408-6.215,7.511-7.398,10.515
		c-1.183,3.004-0.889,5.708-3.847,5.406C394.853,652.371,393.374,647.266,393.374,647.266"/>
	<path clip-path="url(#SVGID_2_)" fill="#131313" d="M418.525,663.786c2.666-2.103,5.326-5.106,7.991-8.109
		c2.661-3.003,7.988-7.511,10.06-10.815s3.552-8.411,4.734-5.404c1.183,3.001,3.849,2.1,0.297,5.706
		c-3.552,3.604-3.848,4.804-8.285,9.312c-4.441,4.506-5.029,8.711-7.102,11.414c-2.072,2.705-5.328,2.705-6.215,2.705
		S418.525,663.786,418.525,663.786"/>
	<path clip-path="url(#SVGID_2_)" fill="#232323" d="M296.615,542.433c4.734,6.008,11.54,17.724,25.152,25.833
		c13.612,8.11,71.312,47.76,85.811,57.973c14.5,10.212,44.978,39.951,44.978,39.951s-1.479,2.102-2.961,1.502
		c-1.479-0.6-14.203-10.214-17.753-14.719c-3.551-4.506-12.427-12.015-15.092-15.621c-2.66-3.604-65.098-45.956-65.098-45.956
		l-28.11-18.926c0,0-22.784-17.121-23.969-20.725C298.392,548.14,296.615,542.433,296.615,542.433"/>
	<path clip-path="url(#SVGID_2_)" fill="#2F2F2F" d="M444.074,685.414c-2.764,4.006-59.971,44.055-65.495,44.455
		c-5.521,0.401-9.469,3.205-9.862-1.2c-0.394-4.406-1.973-32.04-5.918-42.454s-9.47-37.248-29.196-48.061
		c-19.727-10.814-63.52-42.854-67.86-44.857c-4.34-2.003-4.734-7.208-4.34-8.412c0.395-1.201,11.837-10.413,15.388-12.816
		c3.55-2.401,10.256-1.601,10.651,2.004c0.395,3.605,14.993,22.429,23.278,27.234c8.285,4.806,39.058,19.625,47.342,27.234
		c8.287,7.609,22.884,26.433,28.803,28.837c5.917,2.402,6.708,0,12.624,1.602c5.92,1.601,3.946,1.201,9.863,7.209
		C415.271,672.197,444.074,685.414,444.074,685.414"/>
	<path clip-path="url(#SVGID_2_)" fill="#2F2F2F" d="M458.178,700.732c3.846,3.605,49.414,42.955,54.742,45.656
		c5.323,2.705,13.313,10.516,17.162,11.115c3.846,0.603,6.508,2.704,5.324,3.304c-1.182,0.603-13.908,21.028-16.273,27.936
		c-2.369,6.91-12.427,4.205-15.387-1.503c-2.959-5.705,1.184-9.611-10.653-12.314s-17.162-0.9-19.826-6.908
		c-2.663-6.008,4.736-7.21-8.875-14.117c-13.611-6.91-21.306-4.507-29-10.813c-7.692-6.309-7.396-10.212-6.806-11.414
		c0.592-1.203,13.021-14.718,17.754-20.126C451.076,706.139,458.178,700.732,458.178,700.732"/>
	<path clip-path="url(#SVGID_2_)" fill="#2F2F2F" d="M546.061,767.117c5.621,1.804,6.213,4.505,19.232,4.805
		c13.018,0.301,52.375,0.301,65.689,1.503c13.316,1.2,14.795-0.601,24.854,3.604c10.063,4.205,20.42-1.2,10.357,9.914
		c-10.059,11.112-19.232,7.509-15.979,17.421c3.258,9.913,0,13.518,6.217,12.917c6.213-0.601,15.09-8.712,23.375-10.815
		c8.285-2.102,14.795-1.199,7.691,3.604c-7.102,4.806-18.047,13.819-30.771,17.123c-12.723,3.306-135.817,29.737-139.072,28.835
		c-3.257-0.9,4.438-19.523,7.396-29.736C528.01,816.079,546.061,767.117,546.061,767.117"/>
	<path clip-path="url(#SVGID_2_)" fill="#2F2F2F" d="M512.327,811.874c0,0-9.767,41.752-10.061,44.155
		c-0.294,2.402-134.93,8.709-151.206,1.803c-16.275-6.909-42.905-20.727-42.905-20.727s64.211,11.412,80.485,10.813
		c16.273-0.6,57.699-4.205,71.311-9.312s28.999-5.106,36.102-12.917c7.102-7.809,16.568-15.019,16.568-15.019"/>
	<path clip-path="url(#SVGID_2_)" fill="#2F2F2F" d="M349.384,846.418c-11.046-4.407-54.445-29.642-60.364-40.053
		c-5.917-10.412-13.019-10.813-7.101-21.627c5.918-10.813,9.073-14.418,23.672-24.432c14.598-10.012,28.406-12.816,26.04-16.422
		c-2.368-3.602-63.125-26.832-81.67-22.025c-18.542,4.807-31.562,12.015-36.297,18.424c-4.734,6.408-14.203,17.619-14.203,20.424
		s12.23,13.218,22.883,16.82c10.653,3.605,28.012,18.025,36.693,23.631c8.68,5.609,35.113,26.836,44.977,32.04
		c9.863,5.208,41.82,21.229,43.005,21.63C348.201,855.227,349.384,846.418,349.384,846.418"/>
	<path clip-path="url(#SVGID_2_)" fill="#2F2F2F" d="M27.446,551.244c0,0-8.287,10.013-13.416,26.434
		c-5.128,16.421-6.706,32.441-7.102,44.055c-0.394,11.615,3.945,59.274,8.285,67.684c4.34,8.412,21.305,22.83,23.279,23.23
		c1.972,0.4,17.359,12.018,39.058,17.222c21.7,5.21,36.691,9.213,49.713,13.219c13.018,4.003,24.066,11.214,35.508,13.616
		c11.44,2.402,16.965,9.211,18.937,4.806c1.973-4.405,5.918-13.618,8.68-20.024c2.762-6.406,20.911-2.403,0.789-15.22
		c-20.121-12.816-40.637-20.427-61.547-24.433c-20.912-4.004-46.556-14.816-60.759-30.436
		c-14.203-15.621-24.461-15.221-29.589-31.642c-5.13-16.42-3.946-25.231,1.183-39.249c5.128-14.018,9.075-16.021,9.469-19.625
		c0.394-3.604,1.183-2.404-5.918-9.613c-7.102-7.21-15.387-21.626-15.387-21.626"/>
	<path clip-path="url(#SVGID_2_)" fill="#2F2F2F" d="M258.248,595.299c0,0,23.277,15.621,32.352,20.425
		c9.074,4.808,29.59,18.424,41.032,30.039c11.441,11.616,18.542,16.821,22.094,30.44c3.552,13.615,7.101,22.027,7.101,30.836
		c0,8.814,0.79,18.826,0.79,18.826s-19.333-2.004-28.012-5.209c-8.68-3.202-61.153-15.619-68.649-16.42
		c-7.496-0.799-37.875,4.807-41.426,6.41c-3.551,1.6,21.699-14.019,24.855-17.623c3.156-3.606,9.075,0.801-0.789-10.012
		c-9.863-10.814-20.515-16.021-28.407-20.025c-7.889-4.006-9.468-13.619,8.286-9.213c17.753,4.404,14.598,3.205,24.856,12.017
		c10.257,8.808,37.085,20.023,50.106,20.425c13.019,0.4,13.413,2.003,17.358-5.607c3.944-7.61,7.496,4.004,4.338-10.813
		c-3.155-14.819-26.432-30.039-35.113-39.652C280.341,620.532,258.248,595.299,258.248,595.299"/>
	<path clip-path="url(#SVGID_2_)" fill="#2F2F2F" d="M541.326,756.002c3.254-5.707,15.09-22.829,18.938-29.438
		c3.846-6.607,6.805-10.813,10.355-13.215c3.551-2.403,7.988-6.608,9.174-6.311c1.182,0.303-9.469,9.313-10.063,10.213
		c-0.59,0.901,1.48,0.303-1.477,5.409c-2.959,5.106-5.922,9.312-8.287,12.314c-2.367,3.005-16.57,25.532-16.57,25.532
		L541.326,756.002z"/>
</g>
</svg>
