<?xml version="1.0" encoding="utf-8"?>
<!-- Generator: Adobe Illustrator 16.0.0, SVG Export Plug-In . SVG Version: 6.00 Build 0)  -->
<!DOCTYPE svg PUBLIC "-//W3C//DTD SVG 1.1//EN" "http://www.w3.org/Graphics/SVG/1.1/DTD/svg11.dtd">
<svg version="1.1" id="Layer_1" xmlns="http://www.w3.org/2000/svg" xmlns:xlink="http://www.w3.org/1999/xlink" x="0px" y="0px"
	 width="800px" height="1200px" viewBox="0 0 800 1280" enable-background="new 0 0 800 1280" xml:space="preserve">
<g>
	<defs>
		<rect id="SVGID_1_" x="103.026" y="-2.175" width="593.947" height="1284.35"/>
	</defs>
	<clipPath id="SVGID_2_">
		<use xlink:href="#SVGID_1_"  overflow="visible"/>
	</clipPath>
	<path clip-path="url(#SVGID_2_)" fill="#E7E7E7" d="M552.375,60.381c0.3-7.778-6.583-66.715-7.778-66.116
		s-307.244,0.3-308.141,0.898c-0.897,0.598-1.496,52.354-1.197,58.936c0.3,6.581,210.014,32.608,212.108,32.01
		c2.095-0.598,99.922-14.06,99.323-14.06S552.375,60.381,552.375,60.381"/>
	<path clip-path="url(#SVGID_2_)" fill="#2F2F2F" d="M481.174,1165.501c2.792,5.187,8.775,13.963,13.563,18.35
		c4.786,4.388,15.557,13.161,18.349,17.149c2.791,3.99,5.184,11.57,7.977,15.161c2.794,3.589,8.776,11.166,8.776,16.354
		c0,5.186-1.596,7.976-1.596,9.572s5.187,1.594,5.187,4.387s-0.399,6.784-0.399,6.784s-10.771,7.579-36.301,9.172
		c-25.529,1.594-39.89-1.992-49.063-4.387c-9.174-2.393-24.331-9.972-24.331-9.972l-0.8-11.968l3.194-0.796l-0.401-5.587
		c0,0-0.797-1.593-4.786-1.593c-3.988,0-11.566,0-14.359,0.796c-2.792,0.797-9.174-3.589-13.961-4.787
		c-4.788-1.195-14.36-7.976-14.36-7.976l-0.399-23.138l1.994-1.596c0,0-1.994-5.587-0.797-15.558
		c1.197-9.969,0.399-19.146,2.793-23.933c2.394-4.786,5.184-9.177,6.381-13.163c1.195-3.986,5.982-3.191,5.982-3.191
		L481.174,1165.501z"/>
	<path clip-path="url(#SVGID_2_)" fill="#2F2F2F" d="M321.119,1174.176c0,4.189,5.237,18.996,4.038,28.572
		c-1.198,9.573-1.944,16.004-1.944,21.39v16.753c0,0-7.18,7.181-13.163,8.377s-11.369-1.196-16.154,0
		c-4.787,1.196-4.188,0-4.188,4.786c0,4.787,0.599,14.36,0.599,14.36s-2.991,4.787-11.968,8.975
		c-8.974,4.188-36.498,4.188-52.055,4.188s-40.687,0.599-44.874-4.786c-4.189-5.385-4.787-16.154-4.787-16.154l4.188-1.197
		c0,0-2.394-9.573-1.196-14.359c1.196-4.788,3.59-9.573,7.18-13.763c3.59-4.188,3.59-3.59,8.376-11.368
		c4.787-7.778,5.386-5.385,11.967-14.359c6.582-8.975,10.771-8.376,13.762-14.958c2.992-6.582,1.196-8.976,4.188-11.368
		C228.078,1176.869,321.119,1174.176,321.119,1174.176"/>
	<path clip-path="url(#SVGID_2_)" fill="#4C4C4C" d="M235.458,43.428c0,0,40.687,1.597,48.664,4.786
		c7.979,3.19,83.769,8.776,92.542,9.573c8.776,0.798,54.251-3.189,74.992-1.596c20.742,1.596,88.553-1.594,95.732-2.394
		c7.18-0.798,9.572-3.986,10.373,3.989c0.795,7.978,1.593,17.553,2.393,27.923c0.798,10.37-1.598,16.754,0.798,24.731
		c2.393,7.976,11.168,20.743,18.349,25.528c7.179,4.787,17.55,23.137,22.337,35.9c4.788,12.764,3.99,35.101,3.99,51.057
		c0,15.957-3.192,39.093-5.586,47.07c-2.394,7.977-5.517,15.685-6.381,19.146c-3.192,12.764-11.17,56.643-12.767,78.979
		c-1.594,22.337-12.763,97.327-13.561,126.048c-0.799,28.721,0.798,33.506-3.989,52.652c-4.788,19.146-9.573,29.52-11.967,56.643
		c-2.394,27.125-3.989,38.296-6.382,66.217c-2.396,27.92-5.585,59.035-10.371,84.563c-4.786,25.53-9.574,55.844-12.765,83.767
		c-3.192,27.923-2.393,23.138-5.585,52.653c-3.19,29.518-7.181,41.484-7.979,74.99c-0.795,33.507-4.785,39.094-4.785,59.037
		s0.796,17.55-2.394,31.113c-3.19,13.562-11.17,39.889-13.563,55.046c-2.393,15.157-5.583,10.371-4.786,31.91
		c0.8,21.54,0.8,27.127,0.8,27.127s-25.531-2.397-36.7-1.597c-11.168,0.796-31.112-4.787-38.293-6.384
		c-7.179-1.594-16.754-8.776-18.348-17.55c-1.596-8.777-3.989-10.37,0-27.923c3.987-17.551,3.19-32.708,2.394-49.462
		c-0.8-16.752,2.395-26.325,2.395-47.069c0-20.742,3.189-214.603,3.189-232.152c0-17.551,2.394-202.637,3.191-223.376
		c0.798-20.743-10.371-109.298-10.371-112.487c0-3.192-5.585-27.924-5.585-27.924s-7.976,24.731-11.169,42.284
		c-3.19,17.55-7.977,23.134-8.776,47.867c-0.796,24.729-4.787,42.279-5.583,63.819c-0.798,21.54-6.384,60.633-7.978,86.959
		c-1.597,26.327-4.789,23.934-5.586,42.281c-0.798,18.349-0.798,17.551-0.798,37.495s-3.989,35.104-3.189,63.024
		c0.797,27.924-3.99,101.318-2.394,115.681c1.594,14.358,4.787,27.92,4.787,48.662c0,20.744,1.594,62.228,0.796,84.563
		c-0.796,22.34-5.583,19.148-10.37,42.284c-4.785,23.137-11.169,48.664-11.966,62.227c-0.8,13.563,0,21.54,0,21.54
		s-27.126,0-34.306,1.597c-7.18,1.593-10.37-2.393-25.528-2.393c-15.159,0-35.103,2.393-37.496,2.393
		c-2.393,0-5.583-2.393-5.583-2.393s-8.777-255.29-7.979-273.64c0.798-18.349,0.798-92.541,0.798-130.835
		c0-38.293-7.18-268.853-3.989-286.401c3.191-17.551,3.191-26.327,3.191-35.901c0-9.572-7.182-23.932-7.182-42.282
		c0-18.348,7.182-53.45,1.597-84.563c-5.584-31.113-8.776-35.103-10.37-58.236c-1.596-23.138-5.586-41.486-1.596-63.823
		c3.989-22.337,2.393-25.53,8.776-43.877c6.38-18.35,19.943-29.52,24.729-46.272c4.787-16.754,2.394-11.967,2.394-27.124
		s0.797-23.136,2.394-27.123C234.66,57.787,235.458,43.428,235.458,43.428"/>
	<path clip-path="url(#SVGID_2_)" fill="#3D3D3D" d="M502.714,358.948c0,0-2.394,408.063-2.394,430.801
		c0,22.734-9.574,166.335-11.967,185.482c-2.394,19.146-5.983,32.31-4.787,43.079c1.196,10.771,3.591,17.95-1.196,27.522
		c-4.786,9.574-8.377,9.574-10.771,21.542c-2.393,11.967-5.983,43.08-5.983,58.636s-2.393,17.95-5.983,26.327
		c-3.589,8.377-5.983,8.377-13.163,9.573c-7.179,1.196-25.13,7.18-32.309,1.196c-7.181-5.983-14.36-10.77-15.558-29.917
		c-1.197-19.146-3.591-55.047,5.982-71.8c9.575-16.753,16.754-34.704,23.934-55.046c7.181-20.344,13.164-16.755,14.359-23.934
		c1.198-7.18,2.394-39.49,2.394-39.49s-25.13,53.85-32.309,67.014c-7.18,13.164-13.163,17.949-10.77-7.181
		c2.392-25.13-5.984-15.557-4.788-43.079c1.197-27.524,3.591-69.407,2.395-100.52c-1.197-31.114-2.395-43.081-2.395-71.802
		c0-28.718,2.395-181.893,4.788-207.022c2.392-25.13,2.392-11.967,8.376-38.293c5.983-26.326-10.77,2.393-10.77-2.393
		c0-4.787-1.197-57.44-5.983-80.177c-4.786-22.737-9.574-33.507-9.574-33.507s-11.967,38.294-13.163,56.243
		c-1.197,17.949-1.197-3.591-2.393-40.687c-1.198-37.097-1.198-51.457,7.18-75.391l8.376-23.934c0,0,1.197,52.654,2.394,58.638
		c1.197,5.983,5.982-14.36,9.573-28.721c3.591-14.359,9.574-28.719,13.163-34.702c3.591-5.983,14.36,20.343,16.754,26.326
		c2.393,5.983,4.787,74.193,9.573,84.963c4.786,10.771,7.179,43.08,17.949,51.456c10.771,8.378,22.737,15.558,29.917,10.771
		s14.36-22.736,14.36-22.736L502.714,358.948z"/>
	<path clip-path="url(#SVGID_2_)" fill="#3D3D3D" d="M391.424,106.452c0,0-4.787,90.946-3.591,111.29
		c1.198,20.344,4.786,47.866,4.786,61.029s-4.786-21.539-10.77-50.26c-5.982-28.72-1.197-45.473-1.197-62.228
		C380.652,149.532,391.424,106.452,391.424,106.452"/>
	<path clip-path="url(#SVGID_2_)" fill="#3D3D3D" d="M432.109,98.075c2.394,17.951-3.59,166.336-3.59,166.336L432.109,98.075z"/>
	<path clip-path="url(#SVGID_2_)" fill="#3D3D3D" d="M541.007,95.683c2.392,11.966-8.377,80.177-8.377,80.177l2.393-81.374
		L541.007,95.683z"/>
	<path clip-path="url(#SVGID_2_)" fill="#3D3D3D" d="M239.447,84.912c0,0-10.771,28.72-13.164,33.507
		c-2.393,4.786-20.343,27.523-26.326,49.063s-14.36,43.08-8.377,78.98c5.982,35.898,9.573,151.976,13.163,166.335
		c3.591,14.36,5.983,111.29,5.983,123.258c0,11.966-2.393,326.689,2.395,350.621c4.786,23.935,26.326,101.718,28.719,105.308
		c2.395,3.59,0-262.069,1.198-293.183c1.196-31.113,13.162-246.514,14.359-278.824c1.196-32.31,13.163-87.356,16.753-120.862
		c3.59-33.507,7.18-59.834-4.786-84.964c-11.967-25.129-23.934-44.276-25.13-75.389C243.038,107.649,239.447,84.912,239.447,84.912"
		/>
	<path clip-path="url(#SVGID_2_)" fill="#3D3D3D" d="M493.14,100.469c2.393-8.376-1.195-41.884-1.195-41.884
		s7.179-11.967,10.77-2.393c3.59,9.572,1.197,33.506,2.393,43.08C506.304,108.845,493.14,100.469,493.14,100.469"/>
	<path clip-path="url(#SVGID_2_)" fill="#3D3D3D" d="M556.563,96.879c1.195-7.18-1.196-40.688-4.786-44.276
		c-3.591-3.591,5.981-2.394,7.179,9.572c1.198,11.967,1.198,34.704,0,39.491C557.759,106.452,556.563,96.879,556.563,96.879"/>
	<path clip-path="url(#SVGID_2_)" fill="#3D3D3D" d="M284.921,100.469c3.59,1.196,8.375,1.196,8.375,1.196s0-21.539,1.197-28.719
		c1.197-7.182,3.59-13.163,4.787-16.754c1.196-3.591-8.377-4.787-8.377-4.787l-5.982,34.704V100.469z"/>
	<path clip-path="url(#SVGID_2_)" fill="#3D3D3D" d="M233.464,90.896c-2.393-5.983-2.393-14.359,0-22.737
		c2.393-8.376,7.18-17.949,7.18-17.949l-7.18-3.59c0,0-5.983,16.753-5.983,25.13C227.48,80.125,233.464,90.896,233.464,90.896"/>
	<path clip-path="url(#SVGID_2_)" fill="#3D3D3D" d="M338.172,916.594c0,0-14.958,69.407-18.548,81.373
		c-3.591,11.968,16.753-49.661,17.949-51.455c1.196-1.797,3.59,34.703,3.59,34.703l-2.394-99.923L338.172,916.594z"/>
	<path clip-path="url(#SVGID_2_)" fill="#3D3D3D" d="M252.61,1020.705c2.393,3.589-0.599,13.162,2.992,16.752
		c3.59,3.59,7.778,4.188,11.966,11.368c4.188,7.181,3.59,10.172,14.36,10.172c10.77,0,30.516,1.795,30.516,1.795L252.61,1020.705z"
		/>
	<path clip-path="url(#SVGID_2_)" fill="#3D3D3D" d="M213.719,913.005c0,0,22.737,113.085,31.712,121.46
		c8.974,8.378,14.359,16.755,16.754,19.147c2.393,2.394-5.386,3.59-8.378,3.59c-2.991,0-19.146-5.385-23.933,0
		c-4.787,5.386,25.729,11.368,29.317,9.573c3.591-1.795-2.991,16.155-2.991,27.523c0,11.369,0.599,56.243,0,62.825
		c-0.598,6.582-1.796,23.336-1.796,23.336l-34.104,2.393c0,0-4.188-44.875-4.188-65.218c0-20.345-5.982-171.723-5.982-181.296
		S213.719,913.005,213.719,913.005"/>
	<path clip-path="url(#SVGID_2_)" fill="#9B9B9B" d="M181.21,258.828c0,0-3.989,9.574,4.787,17.55
		c8.776,7.98,16.752,11.171,18.349,19.947c1.595,8.773,2.395,13.561,3.19,23.933c0.798,10.37,1.597,23.933,4.787,31.113
		s7.978,24.73,5.583,28.721c-2.393,3.986-8.773,5.583-12.763,1.594c-3.99-3.987-7.18-10.371-9.573-18.349
		c-2.394-7.979-3.99-19.146-6.383-21.539c-2.395-2.393-1.597-9.576-7.182-3.192c-5.583,6.383-8.775,8.775-7.179,17.553
		c1.596,8.773,2.394,11.168,5.586,18.348c3.189,7.18,0.797,10.37,3.987,14.359c3.193,3.989,4.787,7.979,9.573,12.766
		c4.787,4.787,6.383,13.561,9.574,15.955c3.192,2.393,2.393,6.382,4.786,11.169c2.393,4.787,1.597,11.967,1.597,11.967
		s0.796,4.787-0.798,10.37c-1.597,5.586-6.384,2.393-9.572,0c-3.193-2.393-27.924-33.506-36.701-38.293
		c-8.773-4.787-10.37-10.371-14.359-21.541c-3.986-11.166-10.37-18.349-13.561-26.326c-3.193-7.977-6.382-11.167-5.586-23.134
		c0.8-11.967-2.393-25.53-0.796-36.699c1.596-11.168,0.796-18.35-0.798-28.721c-1.597-10.37-6.384-14.359-6.384-14.359
		s11.967-10.37,16.754-10.37S181.21,258.828,181.21,258.828"/>
	<path clip-path="url(#SVGID_2_)" fill="#9B9B9B" d="M599.344,128.59c-1.197,1.196-14.36,10.771-14.36,11.668
		c0,0.898,9.274,20.044,11.669,26.326c2.393,6.283,9.273,28.122,9.872,39.49c0.597,11.368-0.898,16.854-0.898,16.854
		s8.976-10.871,12.864-20.444c3.89-9.574,8.975-17.65,16.156-26.026c7.18-8.378,9.273-9.574,13.163-14.96
		c3.889-5.385,6.582-3.888,2.094-8.975c-4.489-5.085-24.831-20.643-32.31-23.035C610.114,127.095,599.344,128.59,599.344,128.59"/>
	<path clip-path="url(#SVGID_2_)" fill="#4C4C4C" d="M596.95,126.197c0,0,32.312,0.299,44.577,13.463
		c12.266,13.162,11.068,15.258,10.47,19.744c-0.598,4.487-1.196,7.479-3.89,8.677c-2.691,1.196-6.88,1.794-7.777,0
		c-0.897-1.796,2.691-3.89,3.29-10.172c0.598-6.283,4.188-3.291-1.196-10.472c-5.385-7.18-9.273-7.777-18.549-11.668
		C614.602,131.881,596.95,126.197,596.95,126.197"/>
	<path clip-path="url(#SVGID_2_)" fill="#4C4C4C" d="M179.613,258.429c-0.536-0.891-2.69-1.994-5.741-3.08
		c-7.196-2.561-19.396-5.029-27.166-4.399c-11.069,0.897-25.13,1.496-26.028,6.582c-0.897,5.086,0.599,8.975,2.991,11.069
		c2.394,2.094-0.298-2.693,1.197-5.685c1.495-2.992,1.795-4.188,8.377-5.085c6.582-0.898,8.975-2.395,17.949-2.395
		c8.976,0,14.361,0.6,18.848,1.796C174.527,258.429,179.613,258.429,179.613,258.429"/>
	<path clip-path="url(#SVGID_2_)" fill="#E7E7E7" d="M181.21,258.828c0,0-7.58-6.384-18.746-6.782
		c-11.171-0.399-34.704-1.196-38.294,2.793c-3.59,3.986-4.389,9.174-4.389,9.174s-3.988-6.384-3.591-17.552
		c0.4-11.169,0.799-31.512,1.196-37.096c0.4-5.586-0.397-10.77-0.397-10.77s0.397-8.776-1.595-17.154
		c-1.994-8.376,0,1.198-2.395-15.155c-2.394-16.354-2.793-21.939-3.989-41.884c-1.196-19.945-0.798-45.476-0.798-53.453
		c0-7.976-0.796-25.13-0.796-25.13l-4.39-65.017l107.699,2.393c0,0,4.787,67.014,1.597,72.997s-4.787,18.35-7.978,29.517
		c-3.192,11.17-3.192,17.151-6.782,31.911s-5.983,15.158-7.18,26.727c-1.196,11.566-1.196,24.729-0.798,28.319
		c0.4,3.59,3.19,7.579,0,13.963c-3.189,6.383-1.992,4.387-3.589,11.967s-2.793,12.365-3.591,23.533
		C181.61,233.299,181.21,258.828,181.21,258.828"/>
	<path clip-path="url(#SVGID_2_)" fill="#E7E7E7" d="M598.849,126.396c0,0,16.356,1.597,23.137,3.989
		c6.779,2.395,17.552,5.186,21.539,11.169c3.987,5.982,9.974,11.967,9.572,15.956c-0.397,3.988-0.397,6.383-0.397,6.383
		s2.79,0.396,5.583-9.176c2.452-8.411,15.158-50.261,15.158-50.261s3.988-4.786,7.578-14.359s5.985-12.764,9.176-19.944
		c3.19-7.18,6.779-11.566,5.185-22.337c-1.594-10.77,0.401-17.152-0.397-18.349c-0.801-1.197-78.183-4.787-78.183-4.787
		s-0.003,23.136-0.4,27.523c-0.397,4.387-1.594,8.377-3.19,15.156c-1.596,6.783-4.387,8.377-4.785,17.152
		c-0.4,8.777-1.596,11.171-2.795,15.158C604.432,103.66,598.849,126.396,598.849,126.396"/>
	<path clip-path="url(#SVGID_2_)" fill="#9B9B9B" d="M669.648,110.641c1.195-5.386-7.779-17.352-19.745-19.745
		c-11.967-2.394,12.564,1.795,16.754,5.983C670.844,101.066,669.648,110.641,669.648,110.641"/>
	<path clip-path="url(#SVGID_2_)" fill="#9B9B9B" d="M526.049,51.405c5.983-12.564,8.575-14.958,11.966-28.72
		c3.178-12.9-5.386,26.327-7.18,30.515C529.04,57.389,526.049,51.405,526.049,51.405"/>
	<path clip-path="url(#SVGID_2_)" fill="#9B9B9B" d="M186.794,192.612c0,0-12.714-8.676-26.326-10.37
		c-11.902-1.481,9.572,0,16.752,1.594C184.4,185.433,186.794,192.612,186.794,192.612"/>
	<path clip-path="url(#SVGID_2_)" fill="#2F2F2F" d="M552.174,55.594c-0.198,0.798,0.2,27.923,0.2,27.923
		s-48.463,4.586-48.266,3.987c0.199-0.599-1.396-30.514-1.396-30.514s28.721,0.398,34.304,0.398S552.174,55.594,552.174,55.594"/>
	<path clip-path="url(#SVGID_2_)" fill="#2F2F2F" d="M492.542,57.389l-54.65,3.19c0,0-0.997,12.965-1.196,17.751
		c-0.198,4.787-1.796,12.367,1.795,13.163c3.591,0.798,38.691-0.599,42.482-0.796c3.79-0.201,12.165,0.796,12.565-0.4
		C493.937,89.101,492.542,57.389,492.542,57.389"/>
	<path clip-path="url(#SVGID_2_)" fill="#2F2F2F" d="M378.858,85.511l-0.599-26.925c0,0-74.791-3.392-77.384-3.591
		c-2.595-0.198-3.589,3.991-5.385,10.969c-1.795,6.981-0.201,16.155-1.795,15.16c-1.597-0.999,0.599-0.599,0.599-0.999"/>
	<path clip-path="url(#SVGID_2_)" fill="#2F2F2F" d="M290.106,55.195c0,0-45.673-4.387-48.663-4.985
		c-2.992-0.598-2.595,1.594-3.392,6.979c-0.797,5.384-0.199,13.163-0.199,16.356c0,3.189,33.505,2.988,39.289,5.183
		c5.785,2.195,8.776,1.197,8.776,1.197L290.106,55.195z"/>
	<path clip-path="url(#SVGID_2_)" fill="#E7E7E7" d="M439.22,56.28l0.347,37.089c0,0-39.361-1.198-48.653-0.428
		c-9.292,0.769-10.725-0.539-11.377,0.074c-0.648,0.61-0.097-38.345-0.097-38.345s22.803-1.622,30.38-1.389
		C417.393,53.509,439.22,56.28,439.22,56.28"/>
</g>
</svg>
